<svg width="375" height="812" viewBox="0 0 375 812" fill="none" xmlns="http://www.w3.org/2000/svg">
<g clip-path="url(#clip0)">
<path d="M60.0958 96.1363L59.9432 96.1691C59.643 93.0698 57.3996 90.335 54.2527 90.1867C53.9278 89.3247 53.0282 71.6591 51.7102 71.8098C50.7964 70.8885 48.7158 71.5109 47.6029 71.5459C46.3649 71.645 45.3859 72.8451 45.537 74.078L46.6194 84.7578C46.0849 84.6261 45.527 84.5688 44.9598 84.5926C43.8976 81.9618 41.0624 80.3896 38.1959 81.0056C36.1446 81.4865 39.1512 85.0866 34.7277 86.702C30.7801 87.35 28.894 91.5126 30.1825 95.1213C25.6571 95.5858 23.1621 99.4497 24.5972 103.764C21.8388 104.327 22.7963 107.038 23.2298 108.945C23.5056 110.261 24.8725 111.022 26.147 110.639L35.8797 144.712C36.0479 145.314 36.6872 145.639 37.2785 145.46C37.6653 147.291 37.8672 150.22 40.5165 149.726C41.4272 149.377 44.383 149.495 43.9953 147.856C43.6781 146.203 41.0258 147.522 40.0549 147.579C40.0156 147.588 39.9765 147.562 39.968 147.523L39.4256 144.999L63.3633 139.855L63.9057 142.379C63.9693 142.584 47.0394 146.003 46.9852 146.09C45.594 146.367 46.0537 148.558 47.4467 148.237C47.4465 148.237 64.3109 144.613 64.3109 144.613C66.9437 143.948 65.9052 141.242 65.5104 139.394C66.1226 139.312 66.5724 138.756 66.4786 138.137L63.6389 118.704C63.5512 118.104 62.9938 117.689 62.3937 117.776C61.7937 117.861 61.3783 118.422 61.4659 119.022L64.157 137.438C63.7755 137.52 38.0928 143.039 37.7092 143.121L28.2989 110.177L59.203 103.536L60.8301 114.671C60.9179 115.271 61.4754 115.686 62.0753 115.598C62.6744 115.511 63.0908 114.953 63.0031 114.353L61.3548 103.074C62.6737 102.898 63.6076 101.644 63.3186 100.331C62.928 98.489 62.7429 95.6681 60.0958 96.1363ZM47.7217 73.8565C47.7138 73.7953 47.7628 73.7355 47.8241 73.731L50.2373 73.4864C50.2687 73.4831 50.297 73.4917 50.3214 73.5116C50.4273 73.5445 52.025 90.3495 52.0687 90.4183L51.3002 90.5835C51.0339 88.8308 50.3657 86.958 48.9435 85.9124L47.7217 73.8565ZM26.4651 102.005C25.6293 97.3534 30.998 97.2799 34.0886 96.5284C35.4848 96.2499 35.0163 94.0609 33.627 94.3811L32.3293 94.66C30.3893 88.3225 36.7435 88.7377 40.8596 87.6306C42.2546 87.3529 41.7881 85.1627 40.3981 85.4836L38.9864 85.7869C39.4063 84.9605 39.6366 84.0336 39.6324 83.0739C43.6418 83.3909 42.3734 87.1969 44.4185 86.8765C47.1379 86.2781 48.9418 88.521 49.1531 91.0448L40.7411 92.8524C39.3477 93.1313 39.8112 95.3195 41.2027 94.9995C41.2025 94.9995 53.0593 92.4517 53.0593 92.4517C55.7645 91.8679 57.6012 94.1206 57.7959 96.6305L26.744 103.303L26.4651 102.005ZM61.1711 100.792C61.3954 100.889 59.8293 101.128 59.8887 101.142C59.8886 101.142 26.6896 108.276 26.6896 108.276C26.6792 108.251 25.3301 108.644 25.3763 108.484C25.4034 108.384 24.7336 105.988 24.9055 105.944L26.1235 105.683C26.1174 105.683 59.3215 98.5498 59.3226 98.5487L60.5571 98.2834C60.5965 98.275 60.6356 98.3002 60.6441 98.3396L61.1711 100.792Z" fill="black" fill-opacity="0.15"/>
<path d="M54.7651 118.252C52.2599 107.533 36.2693 110.971 38.3898 121.771C40.8949 132.489 56.8854 129.052 54.7651 118.252ZM40.5367 121.309C38.9732 113.34 50.7711 110.806 52.6179 118.714C54.1814 126.682 42.3835 129.216 40.5367 121.309Z" fill="black" fill-opacity="0.15"/>
<path d="M50.0222 119.271C48.9682 114.761 42.2402 116.208 43.1324 120.751C44.1864 125.261 50.9144 123.815 50.0222 119.271ZM45.2795 120.29C44.8944 118.612 47.5368 118.044 47.8751 119.732C48.2601 121.411 45.6177 121.978 45.2795 120.29Z" fill="black" fill-opacity="0.15"/>
<path d="M40.5945 132.578C37.9964 133.24 38.9075 135.837 39.3306 137.694C39.9924 140.292 42.5893 139.381 44.4465 138.958C47.0447 138.296 46.1335 135.699 45.7105 133.842C45.0486 131.244 42.4518 132.155 40.5945 132.578ZM43.5635 134.304C44.1451 137.557 44.8151 136.514 41.6137 137.321C41.3938 137.485 41.0352 134.904 40.9678 134.861C40.9547 134.799 40.9941 134.738 41.056 134.725C41.1324 134.768 43.6136 134.036 43.5635 134.304Z" fill="black" fill-opacity="0.15"/>
</g>
<g clip-path="url(#clip1)">
<path d="M277.385 436.973L270.601 438.536C269.888 438.7 269.173 438.253 269.009 437.54L260.785 401.84C260.649 401.249 260.059 400.88 259.467 401.016C258.876 401.152 258.507 401.742 258.643 402.333L266.867 438.033C267.304 439.927 269.2 441.113 271.095 440.677L277.878 439.114C279.267 438.808 278.773 436.637 277.385 436.973Z" fill="black" fill-opacity="0.15"/>
<path d="M339.203 420.936L331.339 416.018C335.709 406.061 325.286 394.755 314.956 398.486C313.876 397.109 305.962 376.814 303.827 377.142C301.796 376.052 296.315 379.849 294.461 380.42C289.69 378.559 283.5 380.082 280.137 383.989C279.109 383.477 277.609 381.991 276.35 382.419C276.228 382.462 256.259 387.031 256.158 387.076C255.626 387.237 255.294 387.827 255.425 388.367L257.656 398.051C257.792 398.642 258.382 399.011 258.974 398.875C259.565 398.738 259.934 398.149 259.798 397.557L258.162 390.458L317.682 427.69L281.667 435.986C280.289 436.283 280.765 438.471 282.16 438.128C282.16 438.128 338.496 425.15 338.496 425.15C340.451 424.77 340.939 421.936 339.203 420.936ZM329.819 408.587C330.966 413.567 328.545 418.682 323.987 420.944L321.401 419.327C321.461 419.239 321.518 419.15 321.573 419.059C325.655 417.868 328.27 413.318 327.23 409.184C325.806 402.007 315.547 400.376 311.926 406.684C311.023 406.337 310.05 406.216 309.096 406.325C313.133 397.051 327.855 398.576 329.819 408.587ZM307.254 409.455C308.787 408.063 311.166 408.176 312.559 409.709C313.468 410.428 313.168 411.828 314.043 412.478C314.34 412.645 314.696 412.665 315.009 412.532C318.409 411.015 321.73 415.209 319.537 418.161L306.677 410.117C306.841 409.877 307.034 409.656 307.254 409.455ZM320.878 411.987C319.467 410.434 317.361 409.761 315.355 410.144C315.03 409.274 314.487 408.468 313.792 407.838C319.576 399.579 330.509 410.299 322.417 416.254C322.484 414.738 321.977 413.196 320.878 411.987ZM302.064 379.258C302.705 378.939 303.544 379.241 303.834 379.896L312.928 399.337C309.769 400.984 307.379 403.854 306.356 407.366C305.751 407.788 305.222 408.336 304.816 408.952L302.973 407.8C306.896 405.566 306.573 399.188 302.407 397.377C304.626 391.75 302.075 384.645 296.991 381.655L302.064 379.258ZM281.841 389.469C282.678 389.675 283.398 390.145 283.923 390.829C284.838 391.926 286.38 390.307 287.734 390.914C289.281 391.293 290.423 392.613 290.577 394.198C290.61 394.536 290.798 394.84 291.086 395.021C292.073 395.48 293.163 394.549 294.227 395.005C295.774 395.384 296.917 396.704 297.071 398.289C297.104 398.627 297.292 398.931 297.579 399.112C298.569 399.572 299.656 398.639 300.721 399.096C304.479 399.938 304.474 405.559 300.719 406.39L277.424 391.818C278.074 390.049 279.969 389.01 281.841 389.469ZM296.123 393.396C295.039 392.812 293.728 392.579 292.512 392.755C291.645 389.813 288.271 387.941 285.29 388.819C288.957 384.299 296.81 387.594 296.123 393.396ZM300.721 390.385C301.22 392.554 301.063 394.758 300.273 396.808C299.849 396.776 299.425 396.787 299.005 396.846C298.795 396.187 298.471 395.579 298.059 395.039C300.5 386.417 288.799 380.572 283.377 387.687C282.49 387.279 281.454 387.104 280.501 387.181C285.172 378.789 298.853 380.882 300.721 390.385ZM276.93 384.575L278.803 385.747C278.316 386.516 277.902 387.341 277.574 388.216C276.705 388.814 275.992 389.641 275.536 390.637L268.788 386.416C268.874 386.43 276.853 384.493 276.93 384.575ZM324.997 426.005L320.711 426.992L259.328 388.595L265.759 387.114L327.142 425.51L324.997 426.005ZM338.09 422.916C338.107 423.123 330.255 424.721 330.171 424.813L326.107 422.271C327.861 421.172 329.3 419.697 330.347 417.989C330.4 418.104 338.168 422.724 338.09 422.916Z" fill="black" fill-opacity="0.15"/>
<path d="M273.418 434.033C273.554 434.625 274.144 434.993 274.735 434.857L284.195 432.678C284.787 432.542 285.156 431.952 285.019 431.36C284.883 430.769 284.293 430.4 283.702 430.536L274.242 432.716C273.651 432.852 273.282 433.442 273.418 434.033Z" fill="black" fill-opacity="0.15"/>
<path d="M268.836 415.164C268.426 413.491 271.061 412.884 271.424 414.568C271.561 415.159 272.15 415.528 272.742 415.392C275.303 414.249 271.572 410.534 269.339 411.431C267.444 411.867 266.258 413.763 266.694 415.658C266.995 417.051 269.175 416.549 268.836 415.164Z" fill="black" fill-opacity="0.15"/>
<path d="M270.736 428.307C272.369 427.875 270.725 425.821 272.556 425.397C274.389 424.978 273.806 427.543 275.466 427.217C278.027 426.074 274.296 422.36 272.063 423.256C269.662 423.427 267.932 428.4 270.736 428.307Z" fill="black" fill-opacity="0.15"/>
<path d="M279.658 418.898C279.248 417.224 281.883 416.617 282.246 418.301C282.383 418.893 282.972 419.262 283.564 419.125C286.125 417.982 282.394 414.268 280.161 415.164C278.266 415.6 277.08 417.496 277.516 419.391C277.817 420.784 279.997 420.283 279.658 418.898Z" fill="black" fill-opacity="0.15"/>
</g>
<g clip-path="url(#clip2)">
<path d="M353.69 596.392L353.127 596.276C352.551 594.237 352.233 590.971 349.6 590.594C349.6 590.594 337.456 588.087 337.456 588.087C337.629 586.778 341.221 578.59 340.209 577.431C339.744 576.22 337.59 575.949 336.557 575.532C335.385 575.123 334.004 575.826 333.645 577.015L330.512 586.652L319.281 584.333C316.72 583.633 315.122 586.514 313.792 588.153C312.431 587.677 310.841 588.303 310.547 589.8C310.123 591.762 309.177 594.444 312.011 594.981L305.223 639.574C305.124 640.196 305.58 640.762 306.199 640.837C305.814 642.668 304.817 645.43 307.44 646.047C308.414 646.095 311.071 647.396 311.378 645.739C311.755 644.099 308.795 644.236 307.884 643.896C307.845 643.888 307.819 643.849 307.827 643.81L308.349 641.281L337.078 647.214L336.556 649.743C336.529 649.954 314.913 645.274 314.826 645.33C313.443 645.023 312.977 647.212 314.382 647.481C314.382 647.481 336.026 651.95 336.026 651.95C338.701 652.405 338.845 649.509 339.229 647.659C339.828 647.833 340.469 647.496 340.626 646.885L352.057 603.251C353.331 603.616 354.682 602.842 354.947 601.53C355.333 599.688 356.302 597.032 353.69 596.392ZM335.734 577.694C335.751 577.635 335.82 577.6 335.878 577.621L338.185 578.371C338.215 578.38 338.237 578.4 338.252 578.428C338.326 578.511 335.286 587.553 335.292 587.64L332.676 587.1L335.734 577.694ZM317.525 586.962C317.839 586.565 318.341 586.381 318.837 586.484L349.156 592.745C350.356 592.872 350.396 594.952 350.722 595.78L316.196 588.65L317.525 586.962ZM342.459 631.223L309.744 624.467L311.971 609.833L346.21 616.904L342.459 631.223ZM309.413 626.641L341.901 633.35L341.228 635.922L309.013 629.269L309.413 626.641ZM346.768 614.776L312.302 607.659L312.702 605.03L347.441 612.204L346.768 614.776ZM307.718 638.909L307.55 638.874L308.682 631.444L340.67 638.05L338.765 645.32C338.649 645.296 307.86 638.938 307.718 638.909ZM352.796 601.086C352.773 601.292 344.423 599.363 344.34 599.415C342.95 599.106 342.495 601.298 343.896 601.566C343.896 601.566 349.904 602.806 349.904 602.806L347.999 610.077L313.033 602.856L314.165 595.426L339.609 600.68C340.203 600.803 340.784 600.421 340.907 599.827C341.029 599.233 340.648 598.652 340.054 598.53L312.247 592.787C312.207 592.779 312.182 592.74 312.19 592.701L312.697 590.244C312.705 590.205 312.744 590.179 312.784 590.187C312.785 590.187 352.021 598.29 352.024 598.291L353.246 598.543C353.286 598.551 353.311 598.59 353.303 598.63L352.796 601.086L352.796 601.086Z" fill="black" fill-opacity="0.15"/>
</g>
<g clip-path="url(#clip3)">
<path d="M118.549 201.835L101.956 197.86C99.3255 197.33 99.0668 200.145 98.6361 201.978C98.3444 203.195 99.0973 204.423 100.314 204.714L116.908 208.689C118.125 208.98 119.352 208.228 119.643 207.01C120.085 205.178 121.142 202.56 118.549 201.835ZM117.507 206.499C117.427 206.629 100.793 202.638 100.772 202.49C100.772 202.49 101.356 200.05 101.356 200.05C101.437 199.92 118.071 203.911 118.092 204.059C118.092 204.059 117.507 206.499 117.507 206.499Z" fill="black" fill-opacity="0.15"/>
<path d="M77.3531 249.175C77.1356 251.249 74.588 255.878 77.8821 256.71L89.7576 259.554C93.0679 260.309 92.9005 255.018 93.643 253.077C93.9343 251.86 93.1814 250.633 91.9644 250.341L80.089 247.497C78.872 247.205 77.6446 247.958 77.3531 249.175ZM91.5069 252.566L90.3575 257.364C90.2711 257.492 78.3633 254.632 78.3396 254.486C78.3397 254.486 79.4891 249.687 79.4891 249.687C79.5753 249.56 91.4831 252.419 91.5069 252.566Z" fill="black" fill-opacity="0.15"/>
<path d="M116.181 258.401C117.561 258.753 118.084 256.577 116.693 256.265L111.975 255.135C110.596 254.783 110.072 256.959 111.464 257.271C111.463 257.271 116.181 258.401 116.181 258.401Z" fill="black" fill-opacity="0.15"/>
<path d="M107.162 260.1C107.021 260.69 107.384 261.282 107.974 261.424L115.051 263.119C115.641 263.26 116.234 262.896 116.375 262.307C116.516 261.717 116.153 261.124 115.563 260.983L108.486 259.288C107.896 259.146 107.303 259.51 107.162 260.1Z" fill="black" fill-opacity="0.15"/>
<path d="M110.136 241.987C110.726 242.128 111.318 241.765 111.46 241.175L113.72 231.739C113.861 231.149 113.498 230.557 112.908 230.415L94.0362 225.895C93.4463 225.754 92.8537 226.117 92.7125 226.707L90.4522 236.143C90.3109 236.733 90.6744 237.325 91.2643 237.467L110.136 241.987ZM94.5925 228.287L111.328 232.295L109.58 239.595L92.8439 235.586L94.5925 228.287Z" fill="black" fill-opacity="0.15"/>
<path d="M142.493 226.157C142.466 224.761 140.126 217.536 139.876 216.261C139.876 216.261 143.143 202.62 143.143 202.62C143.44 201.381 142.673 200.131 141.434 199.834C140.264 199.731 137.73 198.483 136.638 199.381C136.637 199.381 135.383 200.151 135.383 200.151L135.028 198.881C134.431 197.34 132.119 198.07 133.157 200.346L89.6079 189.914C91.5648 188.354 89.8333 186.657 88.6033 187.76C88.6034 187.76 87.7119 188.732 87.7119 188.732L86.942 187.477C86.379 186.174 83.5607 186.125 82.4606 185.708C81.2214 185.411 79.9717 186.178 79.6748 187.417L76.4073 201.058C76.4024 201.063 75.4692 202.081 75.4648 202.086C75.3713 202.226 69.859 208.16 69.7757 208.297C69.3945 208.725 59.0706 253.029 58.8527 253.517C58.4004 255.406 59.5694 257.312 61.4591 257.764L78.1945 261.773C79.5723 262.099 80.0987 259.968 78.7059 259.637L72.4742 258.145L83.2637 213.101L120.193 221.947C121.568 222.298 122.1 220.124 120.705 219.812L72.7278 208.319L76.6563 204.036L138.304 218.803L139.866 224.401L124.988 220.838C123.608 220.486 123.085 222.662 124.477 222.973C124.476 222.973 128.307 223.891 128.307 223.891L117.517 268.934L82.978 260.66C82.3881 260.519 81.7955 260.883 81.6542 261.473C81.513 262.062 81.8764 262.655 82.4664 262.796L127.509 273.586C129.399 274.038 131.304 272.869 131.757 270.98C131.759 270.978 142.492 226.159 142.493 226.157ZM81.128 212.59L70.3385 257.633L61.9707 255.628C61.2589 255.458 60.8185 254.74 60.9891 254.028L71.4693 210.276L81.128 212.59ZM137.786 201.253C137.854 201.18 140.843 201.978 140.923 201.97C141.244 202.022 138.583 211.769 138.661 211.905L135.996 202.351L137.786 201.253ZM81.8107 187.928C81.737 187.651 84.9457 188.622 84.9988 188.574C85.0287 188.581 85.0538 188.6 85.0699 188.626L86.1679 190.415L79.4641 197.725L81.8107 187.928ZM78.3547 202.184L87.9098 191.766L133.832 202.766L137.63 216.383L78.3547 202.184ZM129.621 270.468C129.45 271.18 128.733 271.621 128.021 271.45L119.653 269.446L130.443 224.403L140.101 226.716L129.621 270.468Z" fill="black" fill-opacity="0.15"/>
</g>
<path d="M268.673 304.55C268.377 302.3 266.294 300.669 263.987 300.934C263.377 301.003 262.759 301.012 262.149 300.96C261.539 300.908 261.001 301.358 260.948 301.969C260.895 302.579 261.347 303.117 261.958 303.17C262.708 303.235 263.476 303.225 264.239 303.138C265.363 303.011 266.336 303.798 266.474 304.84C268.948 323.609 256.303 340.928 237.715 344.231C237.112 344.339 236.71 344.914 236.817 345.518C236.924 346.117 237.495 346.523 238.104 346.416C257.752 342.924 271.305 324.516 268.673 304.55Z" fill="black" fill-opacity="0.15"/>
<path d="M234.613 345.772C234.58 345.16 234.056 344.696 233.445 344.724C216.295 345.658 201.11 334.31 197.162 317.595C197.021 316.999 196.424 316.628 195.827 316.77C195.231 316.911 194.862 317.509 195.003 318.105C199.085 335.39 215.12 347.943 233.566 346.939C234.178 346.906 234.647 346.383 234.613 345.772Z" fill="black" fill-opacity="0.15"/>
<path d="M258.406 299.784C254.902 297.774 253.006 293.632 254.045 289.553C254.395 288.175 253.228 286.897 251.825 287.121C246.322 288.005 241.396 283.826 241.196 278.417C241.16 277.447 241.263 277.164 241.263 276.66C241.263 274.603 239.785 272.862 237.749 272.52C233.683 271.838 229.421 271.832 225.351 272.504C224.746 272.604 224.337 273.175 224.437 273.779C224.537 274.384 225.107 274.792 225.712 274.693C229.542 274.061 233.556 274.066 237.382 274.708C238.329 274.867 239.044 275.706 239.044 276.66C239.044 276.87 238.97 277.285 238.97 278.067C238.97 284.882 244.98 290.231 251.81 289.364C250.727 294.279 253.026 299.256 257.302 301.708C257.476 301.808 257.666 301.855 257.853 301.855C258.988 301.855 259.387 300.347 258.406 299.784Z" fill="black" fill-opacity="0.15"/>
<path d="M222.274 274.274C222.101 273.686 221.484 273.35 220.896 273.523C203.806 278.553 192.211 295.21 194.228 313.602C194.29 314.17 194.771 314.591 195.329 314.591C195.993 314.591 196.505 314.015 196.433 313.36C194.56 296.275 205.409 280.394 221.523 275.652C222.11 275.479 222.447 274.862 222.274 274.274Z" fill="black" fill-opacity="0.15"/>
<path d="M207.93 289.888C207.427 290.238 207.302 290.929 207.651 291.432C208.001 291.936 208.692 292.061 209.195 291.711C210.425 290.858 211.695 290.933 211.68 290.935C214.086 290.935 216.043 292.893 216.043 295.299C216.043 297.705 214.086 299.662 211.68 299.662C209.025 299.662 206.956 297.29 207.368 294.626C207.461 294.021 207.046 293.454 206.44 293.361C205.834 293.267 205.268 293.682 205.175 294.288C204.556 298.297 207.67 301.881 211.68 301.881C215.309 301.881 218.262 298.928 218.262 295.299C218.262 289.973 212.253 286.888 207.93 289.888Z" fill="black" fill-opacity="0.15"/>
<path d="M225.295 326.287C221.359 326.287 218.287 329.712 218.751 333.641C219.381 338.973 225.733 341.262 229.645 337.804C230.104 337.398 230.147 336.698 229.741 336.238C229.335 335.779 228.634 335.736 228.175 336.142C225.565 338.45 221.37 336.896 220.955 333.381C220.669 330.971 222.397 328.817 224.777 328.536C227.461 328.219 229.753 330.386 229.649 333.032C229.627 333.644 230.105 334.159 230.717 334.182C231.329 334.205 231.844 333.727 231.867 333.115C232.003 329.379 229.013 326.287 225.295 326.287Z" fill="black" fill-opacity="0.15"/>
<path d="M214.452 316.863C213.854 316.729 213.261 317.105 213.127 317.703C212.363 321.122 208.048 322.293 205.661 319.705C204.916 318.897 204.506 317.847 204.506 316.748C204.506 312.441 210.1 310.753 212.497 314.321C212.839 314.829 213.528 314.965 214.037 314.623C214.545 314.281 214.681 313.592 214.339 313.083C213.109 311.253 211.051 310.165 208.868 310.165C203.129 310.165 200.172 317.025 204.031 321.209C207.626 325.108 214.138 323.354 215.292 318.187C215.426 317.589 215.05 316.996 214.452 316.863Z" fill="black" fill-opacity="0.15"/>
<path d="M262.525 319.969C261.927 319.835 261.333 320.211 261.2 320.81C260.433 324.239 256.114 325.392 253.735 322.811C252.989 322.003 252.579 320.953 252.579 319.855C252.579 315.586 258.163 313.845 260.57 317.427C260.912 317.935 261.602 318.071 262.11 317.729C262.618 317.387 262.754 316.698 262.412 316.189C260.163 312.842 255.454 312.272 252.48 315.014C249.84 317.45 249.612 321.614 252.104 324.316C255.7 328.215 262.211 326.46 263.366 321.293C263.499 320.695 263.123 320.102 262.525 319.969Z" fill="black" fill-opacity="0.15"/>
<path d="M241.96 307.847C239.499 305.179 235.327 305.01 232.659 307.47C229.991 309.931 229.822 314.104 232.282 316.772C233.578 318.177 235.348 318.888 237.124 318.888C242.836 318.888 245.832 312.046 241.96 307.847ZM240.079 315.517C238.311 317.148 235.545 317.036 233.914 315.267C232.282 313.499 232.394 310.733 234.163 309.102C235.931 307.471 238.698 307.582 240.329 309.351C241.96 311.12 241.848 313.886 240.079 315.517Z" fill="black" fill-opacity="0.15"/>
<path d="M234.564 282.701C232.104 280.033 227.931 279.864 225.263 282.325C220.87 286.377 223.754 293.743 229.728 293.743C235.44 293.743 238.437 286.9 234.564 282.701ZM232.684 290.371C230.915 292.003 228.149 291.891 226.518 290.122C224.887 288.353 224.999 285.587 226.767 283.956C228.535 282.325 231.302 282.436 232.933 284.205C234.564 285.974 234.453 288.74 232.684 290.371Z" fill="black" fill-opacity="0.15"/>
<g clip-path="url(#clip4)">
<path d="M353.109 77.6618C344.859 60.8695 322.749 53.6876 306.2 62.4025C304.927 63.029 305.912 65.0215 307.186 64.3679C358.338 43.245 375.522 125.361 320.264 126.648L321.101 124.019C322.697 124.063 324.3 123.979 325.885 123.77C327.64 125.725 331.13 124.915 331.825 122.358C340.738 119.313 347.933 111.963 350.746 102.957C362.128 64.8744 305.842 46.9505 293.111 84.6065C287.868 100.925 297.475 118.537 314.028 122.974L313.221 125.508C286.573 119.026 280.447 81.0866 303.553 66.4884C304.746 65.7271 303.498 63.8381 302.325 64.6639C277.633 80.386 284.15 120.506 312.553 127.606C310.004 132.721 316.689 136.065 318.866 131.037C318.866 131.037 319.575 128.809 319.575 128.809C345.873 131.438 366.081 100.766 353.109 77.6618ZM324.932 121.669C323.891 121.782 322.843 121.837 321.797 121.832L324.024 114.838C324.524 113.19 327.103 114.009 326.557 115.645C326.312 116.662 324.72 120.656 324.932 121.669ZM315.101 131.233C314.402 131.011 314.015 130.262 314.237 129.564L318.659 115.679C319.735 113.526 316.336 109.499 314.986 111.961C314.802 112.539 315.122 113.158 315.7 113.342C316.398 113.564 316.786 114.313 316.563 115.011L314.696 120.875C278.468 110.389 294.272 56.3681 330.438 67.0595C354.952 74.0389 356.363 110.665 332.677 119.68L334.017 115.472C334.24 114.773 334.989 114.386 335.687 114.608C336.266 114.793 336.884 114.473 337.068 113.894C337.252 113.316 336.933 112.697 336.354 112.513C331.355 111.026 331.059 118.807 329.711 121.747C329.211 123.395 326.632 122.577 327.178 120.94C327.982 118.033 330.644 113.393 326.361 111.88C324.507 111.289 322.519 112.317 321.929 114.171L316.771 130.37C316.548 131.068 315.799 131.456 315.101 131.233Z" fill="black" fill-opacity="0.15"/>
<path d="M324.473 85.7913C313.912 82.636 308.945 98.2416 319.385 101.771C329.945 104.927 334.912 89.3211 324.473 85.7913ZM320.052 99.6761C312.349 97.0703 316.016 85.5579 323.806 87.8867C331.509 90.4922 327.841 102.005 320.052 99.6761Z" fill="black" fill-opacity="0.15"/>
<path d="M324.817 105.629C324.726 105.029 324.166 104.615 323.566 104.706C315.712 106.053 308.806 97.9946 311.406 90.4307C316.057 76.6821 336.608 83.2244 332.452 97.1326C331.016 102.465 325.902 103.115 326.973 104.881C327.273 105.41 327.944 105.595 328.472 105.295C338.374 100.04 336.769 84.2561 325.946 81.1632C304.938 75.892 302.332 108.757 323.894 106.88C324.494 106.79 324.907 106.23 324.817 105.629Z" fill="black" fill-opacity="0.15"/>
<path d="M314.814 76.1028C315.393 76.2871 316.011 75.9675 316.195 75.3888C316.483 74.5846 317.038 73.2068 315.85 72.8505C315.271 72.6663 314.653 72.9859 314.468 73.5646C314.181 74.3688 313.626 75.7466 314.814 76.1028Z" fill="black" fill-opacity="0.15"/>
<path d="M330.357 75.3171C330.936 75.5013 331.554 75.1817 331.738 74.603C332.026 73.7988 332.581 72.4211 331.392 72.0647C330.814 71.8805 330.195 72.2001 330.011 72.7788C329.723 73.583 329.168 74.9608 330.357 75.3171Z" fill="black" fill-opacity="0.15"/>
<path d="M304.878 99.3046C304.299 99.1204 303.681 99.44 303.496 100.019C303.208 100.823 302.653 102.201 303.842 102.557C304.42 102.741 305.039 102.422 305.223 101.843C305.511 101.039 306.066 99.6609 304.878 99.3046Z" fill="black" fill-opacity="0.15"/>
<path d="M342.451 89.3631C343.03 89.5474 343.648 89.2278 343.832 88.649C344.12 87.8448 344.675 86.4671 343.487 86.1107C342.908 85.9265 342.29 86.2461 342.105 86.8248C341.817 87.6292 341.262 89.0068 342.451 89.3631Z" fill="black" fill-opacity="0.15"/>
<path d="M302.356 83.2092C301.777 83.0249 301.159 83.3445 300.975 83.9232C300.687 84.7276 300.132 86.1053 301.321 86.4617C301.899 86.6459 302.517 86.3263 302.702 85.7476C302.99 84.9432 303.545 83.5655 302.356 83.2092Z" fill="black" fill-opacity="0.15"/>
<path d="M341.501 104.353C342.08 104.538 342.698 104.218 342.882 103.639C343.17 102.835 343.725 101.457 342.536 101.101C341.958 100.917 341.339 101.236 341.155 101.815C340.867 102.619 340.312 103.997 341.501 104.353Z" fill="black" fill-opacity="0.15"/>
</g>
<g clip-path="url(#clip5)">
<path d="M236.761 143.792L236.347 143.864C236.68 142.943 235.636 138.709 235.542 137.72C235.155 135.506 233.584 133.792 231.595 133.111C232.321 131.929 231.661 129.842 231.478 128.566C230.978 125.703 228.497 123.674 225.69 123.64C225.522 120.259 223.048 117.231 219.565 117.303C218.605 114.632 215.831 112.951 212.941 113.456C210.872 113.858 213.738 117.573 209.253 119.017C205.224 119.518 203.229 123.678 204.402 127.36C201.773 128.345 200.127 131.094 200.628 133.958C200.891 135.225 200.974 137.402 202.059 138.273C200.419 139.588 199.523 141.734 199.91 143.947C200.162 144.932 200.605 149.222 201.236 150C199.843 150.079 198.717 151.281 198.976 152.7C199.306 154.773 199.449 157.605 202.385 156.957L205.816 165.789C206.355 167.176 207.707 168.057 209.159 168.035C209.782 170.177 211.127 174.785 211.759 176.955C212.143 178.331 214.287 177.701 213.869 176.34C213.869 176.34 212.716 172.387 212.716 172.387L233.141 168.817L233.994 182.483C234.036 183.159 233.565 183.758 232.897 183.874L218.052 186.469C217.385 186.585 216.738 186.183 216.548 185.532L215.101 180.568C214.729 179.194 212.568 179.82 212.992 181.183C212.992 181.183 214.439 186.147 214.439 186.147C214.943 187.874 216.659 188.943 218.43 188.633L233.275 186.039C235.047 185.729 236.299 184.142 236.187 182.346C236.008 179.47 235.173 166.113 235.011 163.517C236.384 163.046 237.358 161.758 237.394 160.271L237.626 150.798C238.997 150.707 240.073 149.495 239.821 148.11C239.502 146.253 239.426 143.426 236.761 143.792ZM204.447 149.43C203.725 149.556 203.036 149.072 202.91 148.35L202.074 143.569C201.718 141.532 203.084 139.585 205.12 139.225C205.132 139.233 217.066 137.129 217.079 137.135C218.481 136.91 218.106 134.704 216.701 134.97C216.7 134.971 204.745 137.059 204.744 137.06C202.925 137.387 203.082 134.674 202.792 133.579C202.348 129.993 205.322 129.116 208.235 128.816C209.642 128.596 209.258 126.382 207.856 126.652L206.548 126.88C204.854 120.47 211.19 121.13 215.348 120.182C216.754 119.959 216.372 117.751 214.97 118.018L213.547 118.267C213.999 117.457 214.265 116.539 214.298 115.579C218.294 116.051 216.878 119.807 218.936 119.566C221.677 119.073 223.394 121.385 223.508 123.916L215.028 125.398C213.626 125.628 214.002 127.826 215.406 127.563C215.406 127.563 224.968 125.892 224.968 125.892C227.008 125.535 228.957 126.905 229.314 128.944C229.41 130.083 230.484 132.563 228.658 132.881C228.658 132.878 223.874 133.718 223.873 133.717C223.275 133.822 222.875 134.391 222.979 134.988C223.769 138.032 231.755 131.548 233.377 138.098C233.377 138.098 234.213 142.88 234.213 142.88C234.339 143.601 233.855 144.29 233.133 144.417C232.842 144.496 204.747 149.388 204.447 149.43ZM212.097 170.265L211.349 167.699L232.836 163.944L233.003 166.611L212.097 170.265ZM237.656 148.488C237.402 148.738 227.427 150.283 226.706 150.476C225.301 150.7 225.682 152.907 227.084 152.641C227.084 152.641 235.419 151.184 235.419 151.184L235.197 160.217C235.19 161.049 234.441 161.529 233.675 161.566L209.331 165.821C208.709 165.93 208.092 165.582 207.864 164.994L204.592 156.571L222.755 153.397C223.353 153.292 223.753 152.723 223.648 152.126C223.544 151.528 222.975 151.128 222.377 151.232C222.375 151.233 202.896 154.637 202.893 154.638L201.657 154.854C201.617 154.861 201.579 154.834 201.572 154.794L201.14 152.322C201.133 152.282 201.16 152.244 201.2 152.237C201.285 152.296 237.203 145.803 237.224 146.015C237.224 146.016 237.656 148.488 237.656 148.488Z" fill="black" fill-opacity="0.15"/>
<path d="M229.799 181.719C231.204 181.495 230.823 179.289 229.42 179.555L219.858 181.226C218.453 181.451 218.834 183.657 220.237 183.391C220.237 183.391 229.799 181.719 229.799 181.719Z" fill="black" fill-opacity="0.15"/>
<path d="M216.098 159.711L211.317 160.547C210.719 160.651 210.319 161.221 210.424 161.818C210.528 162.416 211.097 162.816 211.695 162.711L216.476 161.876C217.882 161.651 217.499 159.445 216.098 159.711Z" fill="black" fill-opacity="0.15"/>
</g>
<g clip-path="url(#clip6)">
<path d="M73.2358 501.972C72.9138 500.701 71.5663 499.98 70.3246 500.38L65.9547 483.388C65.8037 482.801 65.2059 482.448 64.6191 482.599C64.0323 482.75 63.679 483.348 63.83 483.935L68.1999 500.926L56.2449 504.001C54.857 498.761 53.5501 491.04 49.5736 487.173C51.2874 481.359 55.7698 476.774 61.5126 474.924L62.7374 479.686C63.069 481.066 65.2389 480.515 64.862 479.139L62.7525 470.936C60.5886 463.699 52.8049 467.45 47.8224 468.691C45.4638 465.952 40.5137 467.226 39.7695 470.762C34.7998 472.082 26.1812 472.546 27.7752 479.932C27.7751 479.932 35.3474 509.375 35.3474 509.375C34.0672 509.626 33.2338 510.905 33.5655 512.174L40.5161 539.201C41.4532 542.98 45.5788 544.524 49.0363 543.145C50.4165 542.806 49.8654 540.65 48.4897 541.021C46.1571 541.964 43.3299 541.336 42.6409 538.654L36.8791 516.25L72.2997 507.141C80.1064 539.975 84.6206 530.808 52.6276 539.957C51.2529 540.286 51.7951 542.46 53.1745 542.081C91.0938 532.678 80.6536 537.955 73.2358 501.972ZM47.8337 485.443C46.8382 484.565 45.7609 483.787 44.6195 483.118L43.4095 478.413C43.2274 477.705 43.6553 476.98 44.3634 476.798L46.7099 476.195C47.418 476.013 48.1423 476.441 48.3244 477.149L49.5318 481.844C48.8559 482.976 48.2854 484.18 47.8337 485.443ZM60.6275 471.483L60.9658 472.798C59.9818 473.108 59.0294 473.488 58.1166 473.935C57.2039 472.755 55.7869 472.076 54.2912 472.109C54.0944 471.129 53.5782 470.242 52.8876 469.602C55.8345 468.745 59.3943 467.571 60.6275 471.483ZM41.4438 472.69C41.6794 472.485 41.8166 472.189 41.821 471.877C41.7794 469.367 45.3884 468.437 46.5629 470.658C47.1903 471.748 48.2121 470.889 49.0231 470.596C50.3781 470.248 51.7642 471.067 52.1127 472.422C52.2982 473.033 51.9805 473.8 52.5894 474.236C53.701 474.908 54.7845 473.612 56.1627 475.031C54.27 476.231 52.5897 477.732 51.1868 479.469L50.4495 476.602C49.4085 473.278 46.4556 473.815 43.8173 474.674C40.2017 475.812 41.2083 479.086 42.0236 481.831C39.9746 480.989 37.7811 480.476 35.5241 480.336C36.0442 478.436 37.6161 479.043 38.2693 477.919C38.5917 477.243 37.9442 476.725 37.8112 476.1C37.4627 474.745 38.2816 473.359 39.6367 473.01C40.2323 472.803 40.9403 473.164 41.4438 472.69ZM32.5966 474.821L35.7719 474.004C35.4757 474.897 35.4512 475.924 35.7517 476.877C34.4265 477.569 33.5134 478.846 33.2825 480.319C32.2723 480.368 31.2549 480.493 30.2372 480.698C29.289 478.359 29.899 475.513 32.5966 474.821ZM30.7844 482.826C45.4107 480.44 52.0856 491.751 54.1201 504.547L37.4719 508.829L30.7844 482.826ZM35.6899 511.628C35.6202 511.421 61.6544 504.954 61.7064 504.862L62.367 507.43L36.3323 514.126L35.6899 511.628ZM64.4917 506.884L63.8311 504.315C63.9273 504.365 71.0676 502.311 71.1109 502.518C71.1111 502.518 71.7535 505.016 71.7535 505.016L64.4917 506.884Z" fill="black" fill-opacity="0.15"/>
<path d="M66.0393 522.629C63.1099 512.03 47.2863 516.102 49.835 526.797C52.7643 537.396 68.5878 533.324 66.0393 522.629ZM51.9595 526.25C50.0799 518.358 61.7548 515.357 63.9145 523.176C65.794 531.068 54.1192 534.069 51.9595 526.25Z" fill="black" fill-opacity="0.15"/>
<path d="M61.346 523.836C60.1135 519.377 53.4557 521.09 54.5282 525.59C55.7607 530.049 62.4183 528.336 61.346 523.836ZM56.6528 525.043C56.2013 523.383 58.8161 522.711 59.2213 524.383C59.6729 526.043 57.0581 526.715 56.6528 525.043Z" fill="black" fill-opacity="0.15"/>
<path d="M37.1799 492.642C36.5931 492.793 36.2399 493.391 36.3908 493.978C36.5736 494.81 36.8346 496.269 38.0283 495.94C38.615 495.789 38.9682 495.191 38.8173 494.605C38.6345 493.772 38.3736 492.313 37.1799 492.642Z" fill="black" fill-opacity="0.15"/>
<path d="M39.2922 500.855C38.7054 501.006 38.3522 501.604 38.5031 502.191C38.6859 503.023 38.9469 504.482 40.1406 504.153C40.7273 504.002 41.0805 503.405 40.9296 502.818C40.7467 501.985 40.4859 500.526 39.2922 500.855Z" fill="black" fill-opacity="0.15"/>
<path d="M42.9292 495.542C42.3423 495.693 41.9891 496.29 42.1401 496.877C42.3229 497.71 42.5838 499.168 43.7775 498.84C44.3642 498.689 44.7174 498.091 44.5665 497.504C44.3836 496.672 44.1227 495.213 42.9292 495.542Z" fill="black" fill-opacity="0.15"/>
</g>
<g clip-path="url(#clip7)">
<path d="M77.936 725.635C85.3583 728.275 93.4793 728.145 100.803 725.267C101.368 725.045 101.646 724.408 101.424 723.843C101.202 723.278 100.564 723 99.9994 723.222C93.5103 725.772 86.3503 726.007 79.7146 723.912L80.8671 720.673C89.5924 723.387 98.7574 721.425 105.535 716.131L107.771 718.756C106.547 719.724 105.244 720.602 103.871 721.378C103.343 721.677 103.157 722.347 103.455 722.875C104.391 724.829 108.937 720.463 110.048 719.727C129.057 704.576 123.035 671.503 99.8171 664.119C58.7291 650.881 37.7174 709.954 77.936 725.635ZM59.158 701.458L62.5385 700.837C64.4501 709.222 70.3177 716.53 78.7968 719.936L77.6445 723.176C67.9707 719.341 61.2896 711.01 59.158 701.458ZM90.55 693.452L98.2204 671.889C105.936 675.02 111.284 681.675 113.054 689.314L90.55 693.452ZM113.454 691.475C114.675 699.079 111.533 707.91 105.784 713.035L90.9473 695.613L113.454 691.475ZM88.4798 692.716L73.6443 675.296C79.8414 670.49 88.1905 668.708 96.1502 671.152L88.4798 692.716ZM86.807 694.14L64.3004 698.279C63.0795 690.674 66.221 681.843 71.9698 676.718L86.807 694.14ZM87.2043 696.301L79.5339 717.865C71.8183 714.733 66.4707 708.079 64.7003 700.439L87.2043 696.301ZM81.6041 718.601L89.2745 697.038L104.11 714.458C97.9129 719.263 89.5639 721.046 81.6041 718.601ZM109.443 717.332L107.21 714.709C113.538 709.112 116.988 699.413 115.616 691.077L118.997 690.455C120.565 700.006 116.771 710.813 109.443 717.332ZM118.596 688.295L115.216 688.917C113.304 680.531 107.437 673.223 98.9575 669.817L100.11 666.577C109.784 670.412 116.465 678.743 118.596 688.295ZM98.0395 665.841L96.8871 669.081C88.1618 666.367 78.997 668.328 72.2193 673.622L69.9907 671.005C77.6755 664.945 88.117 662.705 98.0395 665.841ZM68.3155 672.427L70.5446 675.045C64.2168 680.641 60.7667 690.341 62.1384 698.676L58.7571 699.298C57.1492 689.819 61.0826 678.761 68.3155 672.427Z" fill="black" fill-opacity="0.15"/>
<path d="M86.5296 679.754C90.9225 681.228 93.2294 674.741 88.8924 673.11C84.4995 671.636 82.1927 678.123 86.5296 679.754ZM88.1562 675.181C89.7872 675.736 88.8809 678.283 87.2658 677.683C85.635 677.128 86.5412 674.581 88.1562 675.181Z" fill="black" fill-opacity="0.15"/>
<path d="M69.4043 691.692C73.7972 693.166 76.1041 686.679 71.7672 685.049C67.3743 683.574 65.0674 690.062 69.4043 691.692ZM71.0309 687.119C72.6619 687.674 71.7556 690.222 70.1405 689.622C68.5097 689.067 69.4159 686.519 71.0309 687.119Z" fill="black" fill-opacity="0.15"/>
<path d="M106.371 681.903C101.977 680.429 99.6707 686.916 104.008 688.546C108.401 690.021 110.708 683.533 106.371 681.903ZM104.744 686.476C103.113 685.921 104.019 683.373 105.634 683.973C107.265 684.528 106.359 687.076 104.744 686.476Z" fill="black" fill-opacity="0.15"/>
<path d="M103.37 697.578C98.9772 696.104 96.6704 702.591 101.008 704.221C105.4 705.696 107.707 699.208 103.37 697.578ZM101.744 702.151C100.113 701.596 101.019 699.048 102.634 699.649C104.265 700.203 103.359 702.751 101.744 702.151Z" fill="black" fill-opacity="0.15"/>
<path d="M86.7217 712.14C85.2473 716.533 91.7347 718.84 93.3648 714.503C94.8392 710.11 88.3518 707.803 86.7217 712.14ZM90.4883 712.07C92.1193 712.625 91.2131 715.173 89.5979 714.573C87.967 714.018 88.8733 711.47 90.4883 712.07Z" fill="black" fill-opacity="0.15"/>
<path d="M76.7699 707.19C81.1628 708.665 83.4699 702.177 79.1329 700.547C74.7399 699.073 72.4331 705.56 76.7699 707.19ZM78.3965 702.618C80.0277 703.173 79.1213 705.72 77.5061 705.12C75.8753 704.565 76.7815 702.017 78.3965 702.618Z" fill="black" fill-opacity="0.15"/>
<path d="M77.4835 690.702C78.0552 690.906 78.6834 690.607 78.8867 690.035C79.2012 689.242 79.8016 687.885 78.6264 687.489C78.0547 687.286 77.4266 687.584 77.2232 688.156C76.9088 688.949 76.3084 690.307 77.4835 690.702Z" fill="black" fill-opacity="0.15"/>
<path d="M80.0003 680.007L81.1435 680.413C82.4792 680.911 83.2302 678.801 81.8797 678.343L80.7366 677.937C79.401 677.439 78.65 679.549 80.0003 680.007Z" fill="black" fill-opacity="0.15"/>
<path d="M87.9257 683.07L86.7826 682.663C85.4469 682.166 84.6958 684.275 86.0463 684.733C86.0462 684.733 87.1895 685.14 87.1895 685.14C88.525 685.637 89.276 683.528 87.9257 683.07Z" fill="black" fill-opacity="0.15"/>
<path d="M69.9107 704.75L71.054 705.157C72.3897 705.654 73.1408 703.545 71.7903 703.087L70.647 702.68C69.3114 702.183 68.5604 704.292 69.9107 704.75Z" fill="black" fill-opacity="0.15"/>
<path d="M77.7592 711.649L76.6161 711.243C75.2804 710.745 74.5293 712.855 75.8798 713.313C75.8797 713.313 77.023 713.72 77.023 713.72C78.3585 714.217 79.1095 712.107 77.7592 711.649Z" fill="black" fill-opacity="0.15"/>
<path d="M89.8284 706.684L90.9716 707.091C92.3073 707.588 93.0583 705.479 91.7079 705.021L90.5647 704.614C89.2291 704.117 88.4781 706.226 89.8284 706.684Z" fill="black" fill-opacity="0.15"/>
<path d="M111.71 699.135L112.117 697.992C112.614 696.656 110.504 695.905 110.046 697.255C110.046 697.255 109.64 698.399 109.64 698.399C109.142 699.734 111.252 700.485 111.71 699.135Z" fill="black" fill-opacity="0.15"/>
<path d="M101.468 677.584L100.325 677.177C98.9889 676.68 98.2378 678.789 99.5883 679.247C99.5882 679.247 100.731 679.654 100.731 679.654C102.067 680.151 102.818 678.042 101.468 677.584Z" fill="black" fill-opacity="0.15"/>
<path d="M97.4781 685.179C96.9063 684.976 96.2781 685.274 96.0748 685.846C95.7603 686.64 95.1599 687.997 96.3352 688.393C96.9068 688.596 97.5349 688.298 97.7383 687.726C98.0528 686.932 98.6531 685.575 97.4781 685.179Z" fill="black" fill-opacity="0.15"/>
<path d="M96.5342 716.796C97.1059 717 97.7341 716.701 97.9375 716.13C98.2519 715.336 98.8523 713.979 97.6771 713.583C97.1054 713.38 96.4773 713.678 96.2739 714.25C95.9596 715.044 95.3592 716.401 96.5342 716.796Z" fill="black" fill-opacity="0.15"/>
<path d="M134.638 671.353L68.2537 647.739C67.0741 647.319 65.7732 647.938 65.3536 649.117L41.7398 715.501C41.3202 716.681 41.9385 717.982 43.1181 718.401L63.6819 725.716C65.0287 726.201 65.7607 724.113 64.4182 723.646L43.8545 716.331C43.6367 716.271 67.4762 649.95 67.4237 649.853C67.5251 649.741 133.938 673.365 133.946 673.516L110.332 739.9C110.283 740.117 68.7 725.086 68.6113 725.138C67.2838 724.627 66.519 726.759 67.8751 727.208C67.875 727.208 109.502 742.015 109.502 742.015C110.681 742.435 111.982 741.816 112.402 740.637L136.016 674.253C136.435 673.073 135.817 671.772 134.638 671.353Z" fill="black" fill-opacity="0.15"/>
<path d="M69.1355 659.521L70.3554 656.092C70.3766 656.032 70.4424 656.001 70.5019 656.022L73.9315 657.242C75.2655 657.74 76.0195 655.63 74.6678 655.172L71.2383 653.952C68.2998 652.965 67.843 656.958 67.0653 658.785C66.5694 660.12 68.6765 660.872 69.1355 659.521Z" fill="black" fill-opacity="0.15"/>
<path d="M127.178 681.334C127.75 681.538 128.378 681.239 128.582 680.667L129.801 677.238C130.229 676.037 129.599 674.712 128.398 674.285L124.968 673.065C124.397 672.861 123.769 673.16 123.565 673.732C123.362 674.303 123.66 674.932 124.232 675.135L127.662 676.355C127.721 676.376 127.752 676.442 127.731 676.501L126.511 679.931C126.308 680.503 126.607 681.131 127.178 681.334Z" fill="black" fill-opacity="0.15"/>
<path d="M108.619 730.232L107.399 733.662C107.377 733.721 107.312 733.752 107.252 733.731L103.823 732.511C102.489 732.013 101.735 734.124 103.086 734.581C103.086 734.581 106.516 735.801 106.516 735.801C109.454 736.789 109.911 732.795 110.689 730.968C111.185 729.634 109.078 728.881 108.619 730.232Z" fill="black" fill-opacity="0.15"/>
<path d="M50.5759 708.419C50.0041 708.216 49.376 708.514 49.1726 709.086L47.9526 712.515C47.5254 713.717 48.1549 715.041 49.356 715.469L52.7856 716.689C53.3574 716.892 53.9856 716.593 54.1889 716.022C54.3923 715.45 54.0938 714.822 53.522 714.618L50.0924 713.398C50.0328 713.377 50.0016 713.311 50.0228 713.252L51.2428 709.822C51.4461 709.251 51.1475 708.622 50.5759 708.419Z" fill="black" fill-opacity="0.15"/>
</g>
<g clip-path="url(#clip8)">
<path d="M181.538 461.039C183.123 461.58 183.291 458.664 183.719 457.794C184.75 454.54 183.743 450.752 182.716 448.148C181.502 445.706 182.65 439.607 182.685 436.978C182.685 436.978 183.86 433.274 183.86 433.274C185.221 433.124 185.733 431.611 186.026 430.453C187.266 426.104 181.777 425.652 179.004 424.618C177.196 424.045 175.259 425.05 174.685 426.858C174.264 427.974 173.8 429.504 174.831 430.412L173.657 434.116L169.837 440.475C167.33 444.198 162.271 445.512 160.82 450.535C160.819 450.535 156.544 464.022 156.544 464.022C156.449 464.313 156.369 464.609 156.304 464.908C155.713 467.299 154.273 476.426 152.941 478.424C152.688 478.975 152.928 479.627 153.479 479.88C156.314 481.255 157.602 467.807 158.289 466.15L166.493 468.751L165.359 472.327C165.176 472.905 165.496 473.522 166.074 473.705C166.652 473.889 167.269 473.569 167.453 472.991L168.586 469.414L176.791 472.015C176.07 473.825 172.367 481.647 172.168 483.444C171.968 484.39 170.706 491.791 170.404 492.527C169.893 495.143 168.11 497.426 165.188 496.562L159.409 494.73C156.379 493.527 149.758 493.095 151.187 488.187C151.588 486.678 152.393 484.766 153.085 483.362C153.708 482.077 151.66 481.141 151.091 482.444C148.781 486.874 146.934 492.72 152.966 494.991C155.851 495.899 161.642 497.747 164.525 498.656C173.066 500.939 173.087 489.275 174.328 483.842C174.378 482.537 178.619 473.523 179.128 472.144C179.317 471.795 181.373 465.154 181.564 464.59C182.007 463.249 179.887 462.554 179.471 463.926C179.471 463.926 177.56 469.955 177.56 469.955L158.847 464.023L162.581 452.245L181.294 458.177C181.043 459.027 180.217 460.647 181.538 461.039ZM176.778 427.522C176.986 426.868 177.687 426.504 178.341 426.712L183.122 428.228C184.462 428.655 183.857 430.137 183.528 431.064C183.479 431.271 176.514 428.841 176.422 428.888C176.244 428.919 176.805 427.563 176.778 427.522ZM168.402 445.063C171.177 443.525 173.486 438.434 175.159 435.879C176.131 436.024 178.699 437.631 179.178 436.002C179.707 434.436 176.913 434.273 176.042 433.856L176.845 431.326L181.687 432.861L180.553 436.438C180.421 436.895 180.022 443.807 179.953 444.216C179.549 448.459 182.514 451.314 181.868 456.056L173.647 453.45L174.781 449.873C174.964 449.295 174.644 448.678 174.066 448.494C173.488 448.311 172.871 448.631 172.688 449.209L171.554 452.786L163.334 450.18C164.509 447.872 166.939 446.024 168.402 445.063Z" fill="black" fill-opacity="0.15"/>
<path d="M176.473 460.586C176.656 460.008 176.336 459.391 175.758 459.208L166.511 456.276C165.933 456.093 165.316 456.413 165.133 456.991C164.95 457.569 165.27 458.186 165.848 458.369L175.095 461.301C175.673 461.484 176.29 461.164 176.473 460.586Z" fill="black" fill-opacity="0.15"/>
<path d="M167.357 461.633C166.007 461.183 165.328 463.315 166.694 463.726C166.694 463.726 171.317 465.192 171.317 465.192C171.895 465.375 172.512 465.055 172.696 464.477C172.879 463.899 172.559 463.282 171.981 463.099L167.357 461.633Z" fill="black" fill-opacity="0.15"/>
<path d="M164.834 493.666C166.183 494.115 166.864 491.984 165.498 491.573L156.251 488.641C154.902 488.192 154.221 490.323 155.587 490.734L164.834 493.666Z" fill="black" fill-opacity="0.15"/>
</g>
<g clip-path="url(#clip9)">
<path d="M291.512 198.127C291.381 197.532 290.793 197.156 290.198 197.287C277.9 199.99 269.963 214.481 275.983 228.611L281.528 241.622C281.682 241.985 282.009 242.222 282.372 242.28C282.569 242.311 282.777 242.288 282.974 242.204C283.534 241.966 283.795 241.318 283.556 240.758L278.012 227.747C275.126 220.975 275.574 214.098 279.051 208.145C281.786 203.463 285.696 200.534 290.672 199.44C291.266 199.309 291.642 198.722 291.512 198.127Z" fill="black" fill-opacity="0.15"/>
<path d="M327.834 241.386C327.374 240.986 326.678 241.036 326.279 241.496L318.245 250.752C315.129 253.987 308.923 254.079 305.077 250.923C303.124 249.321 300.463 248.901 298.11 249.828C293.483 251.65 287.604 249.661 285.629 245.623L285.285 244.815C285.046 244.255 284.399 243.994 283.839 244.233C283.279 244.471 283.018 245.119 283.257 245.679C283.639 246.576 283.614 246.52 283.634 246.561C286.111 251.675 293.233 254.118 298.918 251.879C300.524 251.247 302.341 251.531 303.678 252.628C305.357 254.005 307.446 254.922 309.719 255.279C313.606 255.89 317.49 254.732 319.857 252.258C319.869 252.245 319.881 252.232 319.893 252.218L327.944 242.941C328.343 242.481 328.294 241.785 327.834 241.386Z" fill="black" fill-opacity="0.15"/>
<path d="M338.162 216.628C335.023 202.372 320.174 197.616 310.454 202.042C310.627 201.46 311.244 199.176 311.289 196.112C312.269 196.512 313.262 196.794 314.256 196.95C317.96 197.532 321.704 196.452 325.384 193.738C325.874 193.377 325.978 192.687 325.617 192.197C325.255 191.706 324.565 191.602 324.076 191.964C320.887 194.315 317.699 195.26 314.599 194.772C314.016 194.68 313.432 194.535 312.85 194.341C315.992 192.949 321.353 190.653 324.171 189.898C324.76 189.739 325.108 189.135 324.95 188.547C324.793 187.959 324.188 187.611 323.601 187.768C320.732 188.536 315.582 190.722 312.349 192.148C312.859 191.216 313.561 190.135 314.496 189.1C318.338 184.85 323.453 184.109 329.004 185.618C329.384 185.722 329.541 186.082 329.496 186.369C329.48 186.476 329.435 186.576 329.366 186.667C328.692 187.545 327.972 188.384 327.228 189.162C326.808 189.602 326.823 190.3 327.263 190.721C327.703 191.141 328.401 191.126 328.822 190.686C329.62 189.851 330.392 188.95 331.114 188.01C332.351 186.4 331.57 184.032 329.583 183.491C323.225 181.762 317.203 182.764 312.8 187.69C311.922 188.672 311.228 189.68 310.691 190.597C309.668 186.4 307.034 181.476 300.692 178.004C300.157 177.712 299.488 177.907 299.196 178.441C298.903 178.976 299.099 179.645 299.633 179.939C305.801 183.314 308.917 188.593 309.078 195.157C309.187 199.207 308.235 201.378 308.261 201.9C304.726 198.53 299.7 196.779 294.813 196.787C294.204 196.788 293.711 197.282 293.712 197.891C293.713 198.499 294.207 198.991 294.816 198.991C299.12 198.984 303.611 200.507 306.75 203.504C307.877 204.653 309.63 204.94 311.071 204.183C319.284 200.213 333.088 203.834 336.009 217.102C338.786 229.717 329.783 237.11 329.169 238.165C328.77 238.625 328.819 239.321 329.279 239.72C329.738 240.118 330.434 240.071 330.834 239.61C331.415 238.59 341.199 230.424 338.162 216.628Z" fill="black" fill-opacity="0.15"/>
</g>
<g clip-path="url(#clip10)">
<path d="M230.053 698.343L222.094 700.17C220.253 700.593 219.099 702.435 219.522 704.276L222.056 715.313C222.192 715.908 222.786 716.279 223.38 716.143C223.975 716.006 224.347 715.413 224.21 714.818L221.676 703.782C221.526 703.128 221.935 702.475 222.589 702.325L230.548 700.497C231.142 700.361 231.514 699.767 231.377 699.173C231.241 698.578 230.648 698.206 230.053 698.343Z" fill="black" fill-opacity="0.15"/>
<path d="M257.813 694.004C256.999 692.954 255.636 692.469 254.34 692.766L234.362 697.353C233.767 697.49 233.396 698.083 233.532 698.678C233.669 699.272 234.262 699.644 234.857 699.508L254.835 694.921C255.294 694.815 255.779 694.988 256.068 695.36C256.194 695.498 256.292 695.833 256.292 695.833L261.47 718.384C261.606 718.978 262.199 719.35 262.794 719.214C263.389 719.077 263.761 718.484 263.624 717.889C258.098 693.954 258.524 694.963 257.813 694.004Z" fill="black" fill-opacity="0.15"/>
<path d="M234.43 702.075L228.344 703.472C226.459 703.905 225.275 705.792 225.708 707.678L227.254 714.41C227.687 716.296 229.575 717.479 231.461 717.046L237.547 715.648C239.432 715.215 240.614 713.328 240.181 711.442L238.635 704.71C238.202 702.824 236.316 701.642 234.43 702.075ZM238.026 711.936C238.187 712.634 237.75 713.333 237.052 713.494L230.966 714.891C230.268 715.051 229.569 714.613 229.409 713.915L227.863 707.183C227.703 706.485 228.141 705.787 228.839 705.627L234.925 704.229C235.623 704.069 236.32 704.506 236.481 705.204L238.026 711.936Z" fill="black" fill-opacity="0.15"/>
<path d="M251.036 698.376C250.427 698.359 249.918 698.841 249.902 699.451C249.886 700.062 250.368 700.57 250.978 700.586C251.57 700.601 252.075 701.016 252.208 701.594L253.754 708.326C253.914 709.024 253.476 709.722 252.778 709.882L246.693 711.28C245.995 711.44 245.297 711.002 245.136 710.304L243.591 703.573C243.43 702.874 243.868 702.176 244.566 702.016L246.935 701.472C247.53 701.335 247.902 700.742 247.765 700.147C247.628 699.552 247.035 699.181 246.44 699.317L244.072 699.861C242.186 700.294 241.003 702.181 241.436 704.067L242.982 710.799C243.415 712.685 245.302 713.867 247.188 713.434L253.273 712.037C255.159 711.604 256.341 709.717 255.908 707.831L254.363 701.099C254.004 699.538 252.636 698.418 251.036 698.376Z" fill="black" fill-opacity="0.15"/>
<path d="M238.222 718.592L232.137 719.989C230.251 720.422 229.068 722.31 229.501 724.196L231.046 730.926C231.48 732.814 233.367 733.995 235.253 733.562L241.339 732.165C243.225 731.732 244.407 729.846 243.973 727.958L242.428 721.228C241.995 719.342 240.108 718.159 238.222 718.592ZM241.819 728.453C241.979 729.152 241.542 729.85 240.844 730.01L234.758 731.408C234.06 731.568 233.361 731.131 233.201 730.432L231.655 723.701C231.495 723.003 231.933 722.304 232.631 722.143L238.717 720.746C239.415 720.586 240.113 721.024 240.273 721.722L241.819 728.453Z" fill="black" fill-opacity="0.15"/>
<path d="M253.949 714.981L247.863 716.378C245.977 716.811 244.796 718.699 245.229 720.584L246.774 727.315C247.207 729.203 249.094 730.384 250.98 729.951L257.065 728.554C258.951 728.121 260.134 726.234 259.701 724.347L258.156 717.616C257.723 715.73 255.835 714.548 253.949 714.981ZM257.546 724.842C257.707 725.541 257.269 726.239 256.571 726.399L250.485 727.797C249.787 727.957 249.089 727.52 248.929 726.82L247.383 720.09C247.223 719.392 247.66 718.693 248.358 718.532L254.443 717.135C255.141 716.975 255.841 717.413 256.001 718.111L257.546 724.842Z" fill="black" fill-opacity="0.15"/>
<path d="M273.746 736.111C273.511 735.548 272.863 735.281 272.3 735.518C271.737 735.754 271.472 736.4 271.707 736.965C272.979 740.016 272.951 739.919 272.974 740.02C273.065 740.414 272.747 740.835 272.33 740.804C269.804 740.674 268.299 738.999 264.103 739.963C258.876 741.163 259.392 744.069 254.908 745.098C250.808 746.04 250.014 743.857 245.959 744.232C245.35 744.287 244.904 744.826 244.96 745.433C245.017 746.042 245.555 746.488 246.162 746.432C249.557 746.122 250.655 748.343 255.403 747.253C260.631 746.052 260.114 743.147 264.598 742.117C265.499 741.91 266.228 741.852 266.865 741.884C267.658 745.337 270.348 757.05 271.542 762.252C271.692 762.906 271.283 763.559 270.629 763.709C236.027 771.654 238.317 771.15 238.079 771.144C237.527 771.128 237.051 770.742 236.927 770.2C236.44 768.083 233.495 755.255 232.761 752.058C233.59 752.107 234.546 752.041 235.698 751.777C239.726 750.852 240.491 748.803 242.465 747.586C242.986 747.265 243.147 746.586 242.827 746.065C242.506 745.546 241.825 745.383 241.306 745.704C238.928 747.172 238.623 748.837 235.203 749.623C231.278 750.524 230.412 748.558 226.711 748.725C226.341 748.741 226.029 748.455 226.026 748.086L225.963 740.383C227.703 739.983 267.336 730.883 269.004 730.5L270.001 732.885C270.211 733.389 270.752 733.655 271.268 733.537C271.94 733.382 272.304 732.661 272.041 732.033L270.684 728.788C270.476 728.292 269.941 728.017 269.417 728.137L266.149 728.887L264.613 722.198C264.477 721.604 263.883 721.232 263.289 721.369C262.694 721.505 262.322 722.098 262.459 722.693L263.995 729.382C262.519 729.721 230.622 737.045 229.379 737.33L225.2 719.127C225.063 718.533 224.47 718.161 223.875 718.297C223.28 718.434 222.909 719.027 223.045 719.622L227.225 737.825L224.603 738.427C224.098 738.543 223.742 738.995 223.746 739.513C223.844 748.67 223.765 748.184 223.888 748.72C224.197 750.065 225.425 750.995 226.81 750.933C228.203 750.87 229.091 751.218 230.39 751.612C231.363 755.848 234.289 768.591 234.772 770.695C235.199 772.555 237.058 773.686 238.878 773.268C242.265 772.49 267.733 766.643 271.124 765.864C272.965 765.441 274.12 763.599 273.697 761.758C273.259 759.853 269.794 744.76 269.25 742.392C269.548 742.465 271.709 743.241 272.999 742.945C274.525 742.594 275.481 741.061 275.129 739.525C275.035 739.116 274.983 739.103 273.746 736.111Z" fill="black" fill-opacity="0.15"/>
</g>
<g clip-path="url(#clip11)">
<path d="M129.226 605.691C129.782 605.936 130.43 605.684 130.675 605.128C130.919 604.572 130.667 603.924 130.111 603.679C129.556 603.435 128.907 603.687 128.663 604.243C128.418 604.798 128.671 605.447 129.226 605.691Z" fill="black" fill-opacity="0.15"/>
<path d="M156.992 593.726C157.548 593.97 158.196 593.718 158.441 593.162C158.685 592.607 158.433 591.958 157.878 591.714C157.322 591.469 156.673 591.721 156.429 592.277C156.184 592.833 156.437 593.481 156.992 593.726Z" fill="black" fill-opacity="0.15"/>
<path d="M148.481 578.52C149.037 578.764 149.685 578.512 149.93 577.956C150.174 577.401 149.922 576.752 149.366 576.508C148.811 576.263 148.162 576.516 147.918 577.071C147.673 577.627 147.925 578.275 148.481 578.52Z" fill="black" fill-opacity="0.15"/>
<path d="M147.315 614.386C147.87 614.631 148.519 614.379 148.763 613.823C149.008 613.268 148.755 612.619 148.2 612.375C147.644 612.13 146.996 612.382 146.751 612.938C146.507 613.493 146.759 614.142 147.315 614.386Z" fill="black" fill-opacity="0.15"/>
<path d="M132.512 580.641C133.068 580.885 133.716 580.633 133.961 580.078C134.205 579.522 133.953 578.873 133.397 578.629C132.842 578.384 132.193 578.637 131.949 579.192C131.704 579.748 131.956 580.396 132.512 580.641Z" fill="black" fill-opacity="0.15"/>
<path d="M169.961 589.451C170.267 589.013 170.531 588.545 170.749 588.051C172.574 583.902 170.684 579.041 166.535 577.216C164.281 576.224 161.713 576.309 159.547 577.389C158.981 575.416 157.685 573.667 155.829 572.571C157.824 568.419 160.735 565.212 163.798 563.457C162.61 567.262 163.688 570.112 164.903 571.909C166.442 574.184 168.633 575.448 169.268 575.782C169.295 575.796 169.323 575.809 169.351 575.822C169.924 576.074 170.599 575.882 170.951 575.352C172.851 572.495 172.792 569.269 170.78 566.023C169.728 564.325 168.335 562.95 167.365 562.104C168.886 561.827 170.372 561.955 171.729 562.552C172.285 562.796 172.933 562.544 173.178 561.989C173.422 561.433 173.17 560.784 172.614 560.54C169.42 559.134 165.643 559.655 161.98 562.007C161.272 562.462 160.585 562.978 159.922 563.544C159.099 562.288 157.442 560.023 155.19 558.266C151.532 555.413 147.649 554.917 143.962 556.833C143.349 557.152 143.077 557.877 143.331 558.521C143.653 559.336 144.9 562.164 147.461 564.332C148.214 564.969 149.147 565.602 150.269 566.096C151.978 566.848 154.126 567.276 156.743 566.907C155.626 568.354 154.635 569.969 153.804 571.713C151.814 571.17 149.742 571.414 147.975 572.295C147.309 569.952 145.647 568.025 143.379 567.027C142.079 566.455 140.648 566.228 139.241 566.371C138.637 566.433 138.198 566.972 138.259 567.576C138.321 568.18 138.861 568.62 139.464 568.558C140.493 568.453 141.541 568.62 142.494 569.039C144.391 569.874 145.711 571.597 146.024 573.649C145.237 574.385 144.582 575.288 144.122 576.335C143.862 576.926 143.674 577.539 143.559 578.167C141.843 577.981 140.127 578.346 138.652 579.169C138.081 576.734 136.429 574.677 134.123 573.603C134.204 573.097 134.347 572.601 134.556 572.126C134.883 571.382 135.347 570.724 135.933 570.171C136.374 569.755 136.395 569.059 135.978 568.618C135.562 568.176 134.866 568.156 134.425 568.572C133.623 569.328 132.991 570.226 132.544 571.241C132.302 571.79 132.122 572.361 132.005 572.944C128.385 572.339 124.669 574.232 123.125 577.742C121.544 581.333 122.75 585.457 125.794 587.685C125.18 588.349 124.683 589.107 124.312 589.95C122.804 593.378 123.834 597.29 126.577 599.576C125.983 600.229 125.501 600.972 125.139 601.794C123.476 605.572 124.896 609.94 128.296 612.069C127.948 612.546 127.651 613.061 127.411 613.607C125.585 617.757 127.475 622.617 131.624 624.443C135.774 626.269 140.635 624.378 142.46 620.229C142.693 619.701 142.866 619.155 142.983 618.598C146.992 620.006 151.487 618.106 153.226 614.153C153.584 613.34 153.804 612.473 153.886 611.594C157.426 612.073 161.008 610.19 162.517 606.76C162.867 605.965 163.083 605.139 163.17 604.294C164.962 604.871 166.883 604.817 168.661 604.123C169.226 603.903 169.506 603.266 169.286 602.7C169.065 602.135 168.428 601.855 167.863 602.075C166.362 602.66 164.724 602.625 163.249 601.977C161.438 601.18 160.134 599.542 159.759 597.597C159.755 597.577 159.75 597.558 159.745 597.539C160.585 596.783 161.284 595.844 161.768 594.745C162.251 593.647 162.472 592.499 162.461 591.371C164.16 590.301 166.264 590.143 168.101 590.951C171.14 592.288 172.525 595.85 171.188 598.889C171.058 599.185 170.903 599.472 170.729 599.741C170.4 600.251 170.546 600.931 171.056 601.261C171.106 601.293 171.158 601.321 171.211 601.344C171.696 601.558 172.278 601.394 172.575 600.934C172.813 600.567 173.023 600.177 173.2 599.775C174.874 595.967 173.419 591.562 169.961 589.451ZM169.548 573.396C168.762 572.884 167.608 571.984 166.724 570.677C165.361 568.663 165.116 566.36 165.991 563.818C167.942 565.522 171.521 569.379 169.548 573.396ZM145.697 558.449C151.451 556.102 156.111 561.815 157.882 564.442C150.348 566.367 146.828 560.819 145.697 558.449ZM159.755 593.859C158.418 596.899 154.857 598.284 151.817 596.946C148.777 595.609 147.392 592.048 148.73 589.008C150.067 585.968 153.628 584.583 156.668 585.921C159.708 587.258 161.093 590.819 159.755 593.859ZM140.988 603.868C137.948 602.53 136.564 598.969 137.901 595.929C138.25 595.135 138.749 594.447 139.385 593.877C141.625 594.852 144.185 594.764 146.342 593.691C146.841 595.434 147.91 597.002 149.432 598.1C149.471 599.015 149.299 599.934 148.927 600.78C147.589 603.82 144.028 605.205 140.988 603.868ZM146.133 577.22C147.471 574.181 151.032 572.796 154.072 574.133C157.111 575.471 158.496 579.032 157.159 582.072C156.953 582.539 156.691 582.977 156.379 583.374C156.352 583.407 156.329 583.442 156.307 583.477C154.345 582.966 152.311 583.215 150.571 584.083C149.908 581.739 148.252 579.816 145.975 578.815C145.883 578.774 145.79 578.737 145.697 578.7C145.778 578.193 145.923 577.697 146.133 577.22ZM145.09 580.826C146.995 581.665 148.306 583.384 148.618 585.439C147.832 586.174 147.178 587.076 146.717 588.123C146.257 589.169 146.034 590.26 146.023 591.336C144.318 592.478 142.122 592.681 140.239 591.852C137.199 590.515 135.814 586.953 137.151 583.914C138.489 580.874 142.05 579.489 145.09 580.826ZM125.136 578.627C126.473 575.587 130.035 574.202 133.075 575.539C135.124 576.441 136.497 578.389 136.658 580.625C136.66 580.656 136.665 580.686 136.669 580.716C136.048 581.377 135.526 582.152 135.14 583.028C134.755 583.904 134.537 584.81 134.469 585.714C134.457 585.722 134.445 585.73 134.434 585.739C132.672 587.159 130.292 587.475 128.223 586.565C125.183 585.227 123.798 581.666 125.136 578.627ZM126.323 590.835C126.674 590.038 127.178 589.344 127.82 588.771C130.092 589.606 132.584 589.396 134.667 588.226C135.077 589.956 136.043 591.539 137.453 592.695C136.805 593.38 136.271 594.176 135.889 595.044C135.428 596.091 135.205 597.184 135.194 598.261C133.47 599.417 131.308 599.608 129.41 598.773C126.371 597.436 124.986 593.875 126.323 590.835ZM127.15 602.679C127.47 601.951 127.919 601.31 128.485 600.766C128.498 600.772 128.511 600.779 128.525 600.785C130.793 601.783 133.337 601.707 135.514 600.614C136.023 602.387 137.12 603.98 138.686 605.08C138.69 605.924 138.52 606.747 138.176 607.531C136.838 610.57 133.277 611.955 130.237 610.618C127.197 609.28 125.813 605.719 127.15 602.679ZM132.509 622.431C129.469 621.094 128.084 617.532 129.422 614.493C129.662 613.946 129.978 613.443 130.362 612.995C132.866 613.727 135.512 613.204 137.531 611.725C137.783 614.017 138.992 616.156 140.927 617.535C140.863 618.157 140.703 618.764 140.448 619.344C139.11 622.384 135.549 623.769 132.509 622.431ZM151.213 613.267C149.876 616.307 146.315 617.692 143.275 616.354C140.235 615.017 138.85 611.456 140.188 608.416C140.532 607.633 141.025 606.951 141.65 606.384C143.518 606.795 145.434 606.529 147.085 605.706C147.749 608.05 149.407 609.973 151.681 610.974C151.694 610.98 151.707 610.984 151.721 610.99C151.701 611.77 151.53 612.547 151.213 613.267ZM161.01 603.232C161.044 604.143 160.876 605.031 160.505 605.875C159.167 608.914 155.606 610.299 152.566 608.962C150.663 608.124 149.35 606.404 149.038 604.35C149.825 603.614 150.478 602.712 150.939 601.666C151.283 600.883 151.501 600.055 151.59 599.213C153.689 599.93 155.915 599.744 157.806 598.835C158.348 600.629 159.481 602.177 161.01 603.232ZM162.106 589.057C161.52 587.123 160.23 585.413 158.395 584.34C158.696 583.907 158.957 583.444 159.171 582.957C159.631 581.911 159.855 580.82 159.866 579.743C161.572 578.6 163.761 578.397 165.649 579.228C168.689 580.565 170.074 584.126 168.737 587.166C168.516 587.667 168.229 588.13 167.888 588.549C165.964 588.009 163.912 588.187 162.106 589.057Z" fill="black" fill-opacity="0.15"/>
</g>
<path d="M183.198 68.8021L182.773 68.3769C182.322 67.926 181.789 67.6062 181.222 67.4168C184.39 63.7856 184.247 58.2529 180.79 54.7962C179.042 53.0481 176.719 52.0857 174.247 52.0857C171.985 52.0857 169.847 52.8942 168.161 54.3705C167.972 53.7954 167.651 53.2547 167.194 52.7981C165.39 50.9933 162.991 50 160.439 50C157.888 50 155.489 50.9933 153.685 52.7981L113.794 92.6893C110.07 96.4138 110.07 102.473 113.794 106.199C114.251 106.655 114.791 106.977 115.367 107.166C113.89 108.852 113.082 110.988 113.082 113.25C113.082 115.722 114.044 118.046 115.792 119.794C117.54 121.542 119.864 122.505 122.336 122.505C124.594 122.505 126.726 121.699 128.411 120.228C128.605 120.805 128.93 121.334 129.373 121.777L129.798 122.202C131.602 124.006 134.001 125 136.553 125C139.104 125 141.503 124.007 143.307 122.202L145.041 120.468C145.47 120.039 145.47 119.343 145.041 118.914C144.612 118.485 143.916 118.485 143.487 118.914L141.753 120.648C140.364 122.038 138.517 122.803 136.553 122.803C134.588 122.803 132.741 122.038 131.352 120.648L130.927 120.223C130.587 119.884 130.4 119.432 130.4 118.951C130.4 118.609 130.496 118.282 130.674 118L178.994 69.6787C179.689 69.2444 180.616 69.3274 181.219 69.9305L181.644 70.3556C184.512 73.2235 184.512 77.8898 181.644 80.7571L146.678 115.724C146.249 116.153 146.249 116.849 146.678 117.278C147.107 117.707 147.803 117.707 148.231 117.278L183.198 82.3107C185.002 80.5065 185.996 78.1078 185.996 75.5564C185.996 73.0049 185.002 70.6062 183.198 68.8021ZM122.336 120.307C120.451 120.307 118.679 119.573 117.346 118.241C116.013 116.908 115.279 115.136 115.279 113.25C115.279 111.366 116.013 109.593 117.346 108.261L119.108 106.499C119.225 106.406 119.338 106.306 119.446 106.199C119.503 106.141 119.552 106.078 119.594 106.013L160.246 65.3608C160.675 64.9317 160.675 64.2359 160.246 63.8073C159.817 63.3781 159.122 63.3781 158.692 63.8073L117.666 104.834C116.963 105.337 115.978 105.275 115.348 104.644C112.48 101.777 112.48 97.1102 115.348 94.2429L155.239 54.3516C158.106 51.4837 162.773 51.4837 165.64 54.3516C166.271 54.9822 166.332 55.9669 165.829 56.669L162.02 60.4794C161.591 60.9085 161.591 61.6037 162.02 62.0329C162.449 62.462 163.145 62.462 163.573 62.0329L167.008 58.5979C167.074 58.5562 167.136 58.507 167.194 58.4492C167.302 58.341 167.402 58.2283 167.495 58.111L169.256 56.3498C170.59 55.0165 172.362 54.283 174.246 54.283C176.131 54.283 177.904 55.0171 179.236 56.3498C181.987 59.1009 181.987 63.5778 179.236 66.329L177.59 67.9752C177.426 68.0954 177.269 68.2287 177.121 68.3769L129.373 116.126C129.226 116.273 129.092 116.43 128.971 116.594L127.325 118.24C125.993 119.573 124.22 120.307 122.336 120.307Z" fill="black" fill-opacity="0.15"/>
<path d="M134.998 101.706C135.029 99.9787 135.054 98.6145 136.539 97.1291C138.025 95.6436 139.388 95.6196 141.115 95.5881C142.98 95.555 145.093 95.5166 147.206 93.404C149.318 91.2915 149.356 89.1783 149.39 87.3141C149.421 85.5871 149.445 84.2236 150.93 82.7381C152.416 81.2533 153.779 81.2287 155.506 81.1978C157.37 81.164 159.483 81.1262 161.596 79.0137C163.709 76.9011 163.746 74.7879 163.78 72.9237C163.811 71.1968 163.836 69.8326 165.32 68.3478C166.806 66.8623 168.169 66.8377 169.896 66.8068C171.761 66.7736 173.874 66.7353 175.986 64.6227C176.416 64.1941 176.416 63.4983 175.986 63.0692C175.557 62.64 174.862 62.64 174.433 63.0692C172.948 64.5546 171.584 64.5792 169.857 64.6101C167.993 64.6439 165.88 64.6817 163.767 66.7942C161.654 68.9062 161.617 71.0194 161.583 72.8842C161.552 74.6111 161.527 75.9747 160.042 77.4601C158.557 78.945 157.193 78.9696 155.467 79.0005C153.602 79.0343 151.489 79.072 149.377 81.1846C147.264 83.2972 147.226 85.4103 147.192 87.2746C147.162 89.0015 147.137 90.3656 145.652 91.8505C144.167 93.3359 142.802 93.3605 141.076 93.3914C139.211 93.4252 137.098 93.463 134.986 95.5756C132.873 97.6881 132.835 99.8013 132.801 101.666C132.771 103.392 132.746 104.757 131.261 106.242C129.775 107.727 128.411 107.752 126.684 107.783C124.82 107.817 122.707 107.854 120.594 109.968C120.165 110.397 120.165 111.092 120.594 111.521C120.808 111.736 121.09 111.843 121.371 111.843C121.652 111.843 121.933 111.736 122.148 111.521C123.633 110.036 124.997 110.011 126.724 109.98C128.588 109.946 130.702 109.908 132.814 107.796C134.927 105.683 134.965 103.57 134.998 101.706Z" fill="black" fill-opacity="0.15"/>
<g clip-path="url(#clip12)">
<path d="M118.418 356.484L104.246 340.51C100.499 336.286 93.6563 337.213 91.1651 342.278L87.9189 348.878C82.5983 349.831 77.8969 352.968 75.8797 358.09C68.6703 362.067 67.8536 371.139 73.0497 376.957C72.6337 377.97 72.4471 379.103 72.549 380.273L74.6065 403.896C74.9318 407.633 77.587 410.584 81.0633 411.072L101.217 413.903C104.693 414.391 108.058 412.285 109.4 408.782L117.886 386.64C118.829 384.178 118.324 381.489 116.745 379.684C116.72 379.602 111.667 366.534 111.636 366.453C111.417 365.887 110.781 365.606 110.215 365.825C109.65 366.044 109.368 366.68 109.587 367.246L113.582 377.583C112.765 377.205 112.109 376.98 111.597 376.901C111.594 376.9 111.591 376.9 111.588 376.9C111.576 376.898 111.564 376.895 111.552 376.894C109.661 376.628 105.317 377.912 103.628 378.445C103.308 378.234 102.879 377.954 102.383 377.643L97.767 365.84C95.8693 360.988 90.8407 357.2 85.254 356.416C84.653 356.331 84.0976 356.75 84.0132 357.351C83.9288 357.952 84.3475 358.507 84.9484 358.592C89.6984 359.259 94.1281 362.569 95.7205 366.64L99.336 375.885C98.2438 375.324 97.1882 374.876 96.4375 374.771C94.5466 374.505 90.2027 375.789 88.5131 376.323C86.9511 375.288 83.1706 372.896 81.2884 372.644C80.1373 372.526 78.6759 372.813 77.5112 373.077C76.2336 373.367 75.1221 374.056 74.2743 375.001C69.4296 368.913 72.1373 359.922 81.2122 358.606C81.8127 358.519 82.2288 357.962 82.1417 357.361C82.0546 356.761 81.4973 356.344 80.8968 356.432C80.242 356.527 79.6024 356.663 78.9794 356.835C80.9829 353.728 84.5534 351.59 88.8174 350.957C93.3238 350.288 97.6941 351.498 101.308 353.966C101.809 354.309 102.493 354.18 102.835 353.679C103.177 353.178 103.048 352.494 102.547 352.152C99.0572 349.768 94.8677 348.407 90.5093 348.592L93.1375 343.248C94.9469 339.569 99.8863 338.907 102.603 341.969L116.774 357.942C124.287 366.41 123.142 374.449 119.564 379.149C119.197 379.631 119.29 380.321 119.773 380.688C120.255 381.056 120.945 380.963 121.312 380.48C125.419 375.085 126.815 365.949 118.418 356.484ZM77.9969 375.22C78.9367 375.007 79.6026 374.9 80.0724 374.849L80.103 398.623C80.1037 399.177 80.5143 399.635 81.0474 399.71C81.7126 399.803 82.301 399.286 82.3003 398.62L82.2704 375.254C83.7065 375.901 85.7459 377.133 87.207 378.094L85.5116 405.009C85.4753 405.586 85.891 406.087 86.4541 406.166C87.0912 406.256 87.6644 405.784 87.7045 405.148L89.3922 378.35C91.1282 377.812 93.493 377.18 95.0165 376.987L91.7682 400.115C91.6838 400.716 92.1025 401.271 92.7034 401.355C93.3044 401.44 93.8597 401.021 93.9441 400.42L97.1924 377.293C98.6775 377.93 100.85 379.253 102.224 380.152L96.4643 406.378C96.3342 406.97 96.7091 407.557 97.3018 407.687C97.8866 407.817 98.4791 407.447 98.6105 406.849L104.395 380.508C106.064 379.986 108.364 379.364 109.923 379.138L103.42 401.722C103.252 402.305 103.589 402.914 104.172 403.082C104.754 403.25 105.364 402.914 105.532 402.33L112.147 379.354C112.585 379.532 113.196 379.818 114.04 380.282C115.861 381.281 116.648 383.729 115.834 385.854L107.349 407.996C106.375 410.538 103.979 412.072 101.522 411.727L81.3689 408.896C78.9123 408.551 77.0316 406.416 76.7954 403.705L74.7379 380.082C74.5406 377.815 75.9718 375.679 77.9969 375.22Z" fill="black" fill-opacity="0.15"/>
<path d="M109.98 362.168L109.264 360.315C109.045 359.749 108.409 359.468 107.843 359.687C107.277 359.905 106.996 360.542 107.215 361.107L107.93 362.96C108.161 363.556 108.84 363.816 109.393 363.573C109.902 363.35 110.205 362.749 109.98 362.168Z" fill="black" fill-opacity="0.15"/>
</g>
<g clip-path="url(#clip13)">
<path d="M272.787 531.573C270.542 521.876 260.187 515.96 249.703 518.387C239.22 520.813 232.516 530.677 234.761 540.374C237.006 550.072 247.361 555.987 257.845 553.561C268.328 551.134 275.031 541.27 272.787 531.573ZM236.902 539.879C234.93 531.362 240.895 522.681 250.199 520.527C259.502 518.374 268.675 523.551 270.646 532.068C272.618 540.586 266.652 549.267 257.349 551.42C248.046 553.573 238.873 548.396 236.902 539.879V539.879Z" fill="black" fill-opacity="0.15"/>
<path d="M258.264 544.16C258.89 544.122 259.498 544.033 260.085 543.897C262.351 543.373 264.294 542.142 265.67 540.33C267.984 537.285 268.868 533.647 268.036 530.599C267.357 528.111 265.6 526.224 262.954 525.142C258.542 523.338 256.142 526.668 254.214 529.344C253.021 531.001 251.894 532.565 250.493 532.966C248.825 533.444 247.798 533.158 246.712 532.856C245.208 532.437 243.503 531.963 240.713 533.666C240.703 533.672 240.695 533.68 240.686 533.688C239.607 534.282 238.157 535.671 238.894 538.708C239.469 541.084 240.921 542.829 243.092 543.752C245.2 544.648 247.645 544.627 249.801 544.128C250.875 543.879 251.876 543.511 252.729 543.079C254.386 543.891 256.313 544.282 258.264 544.16V544.16ZM251.098 535.079C253.231 534.468 254.637 532.516 255.997 530.629C258.053 527.776 259.448 526.082 262.122 527.176C264.141 528.001 265.417 529.348 265.916 531.178C266.56 533.536 265.795 536.534 263.921 539.001C262.58 540.765 260.523 541.819 258.128 541.968C255.649 542.121 253.242 541.264 251.688 539.673L251.285 539.259C249.829 537.766 248.407 536.307 246.997 535.201C248.052 535.444 249.348 535.579 251.098 535.079V535.079ZM243.952 541.73C242.424 541.08 241.441 539.889 241.029 538.19C240.571 536.299 241.365 535.799 241.784 535.59C243.874 534.808 246.71 537.714 249.712 540.793L250.116 541.208C250.257 541.352 250.405 541.491 250.556 541.626C248.511 542.353 245.951 542.58 243.952 541.73Z" fill="black" fill-opacity="0.15"/>
<path d="M295.834 552.713C294.984 549.596 292.777 547.23 289.452 545.871C286.987 544.862 284.804 545.056 282.778 546.462C282.314 546.784 281.879 547.158 281.465 547.566C279.156 533.472 275.698 519.465 271.175 505.888C271.431 505.141 271.883 503.492 271.871 501.183C271.863 499.818 271.016 498.67 269.712 498.258C268.428 497.852 267.097 498.298 266.321 499.392C265.919 499.958 265.506 500.346 264.687 500.536C263.612 500.785 262.995 500.408 262.14 499.886C261.142 499.277 259.901 498.52 257.952 498.971C256.003 499.422 255.221 500.648 254.593 501.633C254.054 502.477 253.665 503.087 252.59 503.336C251.515 503.585 250.898 503.208 250.043 502.686C249.046 502.077 247.805 501.319 245.856 501.771C243.906 502.222 243.124 503.448 242.496 504.433C241.958 505.277 241.569 505.887 240.494 506.136C239.419 506.384 238.802 506.007 237.947 505.486C236.95 504.877 235.709 504.119 233.76 504.57C231.811 505.021 231.029 506.247 230.401 507.232C229.862 508.077 229.473 508.686 228.399 508.935C227.58 509.125 227.038 508.957 226.43 508.625C225.251 507.983 223.86 508.168 222.885 509.096C221.894 510.039 221.638 511.442 222.231 512.672C223.234 514.75 224.363 516.032 224.922 516.591C225.247 519.017 225.605 521.448 225.991 523.826C226.088 524.425 226.652 524.832 227.251 524.735C227.85 524.638 228.257 524.073 228.16 523.474C227.796 521.234 227.456 518.945 227.146 516.659C240.716 511.745 254.857 508.472 269.207 506.924C273.832 520.872 277.323 535.276 279.59 549.755C279.232 550.23 278.882 550.714 278.536 551.194L278.298 551.525C277.942 552.016 278.053 552.703 278.545 553.058C279.037 553.414 279.724 553.303 280.079 552.811L280.319 552.478C283.068 548.662 284.94 546.399 288.62 547.904C291.327 549.011 293.041 550.824 293.715 553.291C294.573 556.435 293.563 560.419 291.081 563.687C289.289 566.044 286.545 567.451 283.353 567.649C280.056 567.854 276.851 566.708 274.778 564.586L274.251 564.046C271.883 561.617 269.583 559.259 267.316 557.814C267.506 557.864 267.699 557.918 267.898 557.973C269.42 558.397 271.314 558.923 274.155 558.111C275.186 557.816 276.157 557.241 277.123 556.354C277.569 555.944 277.599 555.249 277.189 554.802C276.778 554.355 276.084 554.326 275.637 554.736C274.928 555.387 274.246 555.799 273.551 555.998C271.305 556.641 269.937 556.26 268.488 555.857C266.514 555.307 264.473 554.739 260.986 556.868C260.972 556.877 260.959 556.887 260.947 556.898C258.807 558.062 258.436 560.059 258.559 561.677C251.931 563.166 245.139 564.29 238.341 565.024C234.303 552.848 231.123 540.311 228.886 527.745C228.779 527.148 228.209 526.75 227.612 526.856C227.013 526.963 226.616 527.533 226.723 528.13C229.007 540.961 232.268 553.762 236.413 566.184C236.158 566.921 235.697 568.578 235.71 570.908C235.717 572.274 236.564 573.422 237.868 573.834C239.151 574.239 240.483 573.794 241.26 572.699C241.661 572.134 242.074 571.745 242.893 571.556C243.969 571.307 244.586 571.684 245.441 572.205C246.438 572.814 247.679 573.571 249.629 573.12C251.577 572.669 252.359 571.443 252.987 570.459C253.526 569.614 253.915 569.004 254.991 568.756C256.065 568.507 256.682 568.884 257.537 569.405C258.534 570.014 259.775 570.771 261.725 570.32C262.691 570.096 263.357 569.678 263.83 569.252C263.893 569.281 263.954 569.311 264.019 569.339C266.677 570.469 269.764 570.442 272.489 569.811C273.914 569.481 275.238 568.985 276.352 568.405C278.477 569.479 280.965 569.999 283.488 569.842C284.28 569.793 285.049 569.682 285.79 569.51C288.647 568.849 291.096 567.298 292.83 565.016C295.761 561.158 296.884 556.559 295.834 552.713V552.713ZM226.147 514.686C225.656 514.132 224.903 513.153 224.21 511.717C223.95 511.177 224.29 510.793 224.4 510.688C224.534 510.56 224.897 510.292 225.379 510.555C226.179 510.991 227.302 511.444 228.894 511.076C230.843 510.624 231.625 509.399 232.253 508.414C232.792 507.569 233.181 506.959 234.255 506.711C235.33 506.462 235.948 506.839 236.802 507.361C237.799 507.97 239.04 508.727 240.989 508.276C242.939 507.825 243.721 506.599 244.349 505.614C244.887 504.77 245.276 504.16 246.351 503.911C247.426 503.662 248.044 504.039 248.898 504.561C249.896 505.17 251.137 505.928 253.086 505.476C255.035 505.025 255.817 503.799 256.445 502.814C256.984 501.97 257.373 501.36 258.448 501.111C259.523 500.862 260.14 501.239 260.995 501.761C261.993 502.37 263.234 503.128 265.183 502.676C266.775 502.308 267.585 501.407 268.112 500.664C268.43 500.216 268.874 500.297 269.051 500.353C269.196 500.399 269.671 500.595 269.674 501.194C269.682 502.79 269.435 504 269.239 504.712C254.534 506.276 240.043 509.63 226.147 514.686V514.686ZM258.682 567.53C257.685 566.921 256.444 566.164 254.495 566.615C252.546 567.066 251.764 568.292 251.135 569.277C250.597 570.121 250.208 570.731 249.133 570.979C248.058 571.228 247.44 570.851 246.586 570.33C245.588 569.721 244.347 568.964 242.398 569.415C240.805 569.784 239.995 570.684 239.468 571.427C239.15 571.875 238.706 571.795 238.53 571.739C238.385 571.693 237.911 571.497 237.908 570.897C237.898 569.181 238.184 567.911 238.387 567.227C245.319 566.487 252.246 565.345 259.005 563.829C259.557 565.528 260.497 566.935 261.785 567.994C261.625 568.067 261.442 568.131 261.23 568.18C260.154 568.429 259.537 568.052 258.682 567.53ZM264.879 567.317C262.804 566.435 261.47 564.821 260.913 562.52C260.313 560.048 261.265 559.198 262.079 558.785C264.976 557.686 268.719 561.52 272.678 565.58L273.206 566.121C273.507 566.43 273.828 566.72 274.165 566.994C271.379 568.107 267.709 568.52 264.879 567.317V567.317Z" fill="black" fill-opacity="0.15"/>
<path d="M290.427 558.504L290.381 558.548C289.94 558.965 289.921 559.66 290.338 560.101C290.616 560.394 291.018 560.501 291.385 560.416C291.569 560.373 291.744 560.283 291.892 560.144L291.938 560.1C292.378 559.683 292.397 558.988 291.98 558.547C291.563 558.106 290.868 558.087 290.427 558.504Z" fill="black" fill-opacity="0.15"/>
<path d="M292.333 557.584C292.517 557.542 292.692 557.451 292.839 557.312L292.885 557.268C293.326 556.851 293.345 556.156 292.928 555.715C292.511 555.275 291.816 555.256 291.375 555.673L291.329 555.716C290.888 556.133 290.869 556.829 291.286 557.269C291.564 557.563 291.966 557.669 292.333 557.584Z" fill="black" fill-opacity="0.15"/>
<path d="M288.37 556.329L288.324 556.372C287.883 556.789 287.864 557.485 288.281 557.925C288.559 558.219 288.961 558.325 289.328 558.24C289.512 558.198 289.687 558.107 289.834 557.968L289.88 557.924C290.321 557.507 290.34 556.812 289.923 556.371C289.506 555.931 288.811 555.912 288.37 556.329Z" fill="black" fill-opacity="0.15"/>
</g>
<defs>
<clipPath id="clip0">
<rect width="75" height="75" fill="white" transform="translate(0 81.7566) rotate(-12.1275)"/>
</clipPath>
<clipPath id="clip1">
<rect width="75" height="75" fill="white" transform="translate(253 377.837) rotate(-12.9729)"/>
</clipPath>
<clipPath id="clip2">
<rect width="75" height="75" fill="white" transform="translate(300.168 568) rotate(11.6682)"/>
</clipPath>
<clipPath id="clip3">
<rect width="75" height="75" fill="white" transform="translate(75.4712 184) rotate(13.4707)"/>
</clipPath>
<clipPath id="clip4">
<rect width="75" height="75" fill="white" transform="translate(296.755 49) rotate(17.6623)"/>
</clipPath>
<clipPath id="clip5">
<rect width="75" height="75" fill="white" transform="translate(176 119.912) rotate(-9.91342)"/>
</clipPath>
<clipPath id="clip6">
<rect width="75" height="75" fill="white" transform="translate(7 476.681) rotate(-14.4228)"/>
</clipPath>
<clipPath id="clip7">
<rect width="75" height="75" fill="white" transform="translate(66.1135 646.978) rotate(19.5812)"/>
</clipPath>
<clipPath id="clip8">
<rect width="75" height="75" fill="white" transform="translate(145.664 414) rotate(17.5893)"/>
</clipPath>
<clipPath id="clip9">
<rect width="75" height="75" fill="white" transform="translate(275.651 174) rotate(8.93717)"/>
</clipPath>
<clipPath id="clip10">
<rect width="75" height="75" fill="white" transform="translate(202 704.784) rotate(-12.9314)"/>
</clipPath>
<clipPath id="clip11">
<rect width="75" height="75" fill="white" transform="translate(128.206 541) rotate(23.7498)"/>
</clipPath>
<clipPath id="clip12">
<rect width="75" height="75" fill="white" transform="translate(64.4314 333) rotate(7.99491)"/>
</clipPath>
<clipPath id="clip13">
<rect width="75" height="75" fill="white" transform="translate(215 508.912) rotate(-13.0321)"/>
</clipPath>
</defs>
</svg>
