<svg width="100" height="100" viewBox="0 0 100 100" fill="none" xmlns="http://www.w3.org/2000/svg">
<path d="M93.75 50C97.2018 50 100.04 47.191 99.6099 43.7661C98.6448 36.086 95.9054 28.7047 91.5735 22.2215C86.0794 13.999 78.2705 7.5904 69.1342 3.80602C59.9979 0.0216417 49.9445 -0.968525 40.2455 0.960736C30.5464 2.89 21.6373 7.65204 14.6447 14.6447C7.65204 21.6373 2.89 30.5464 0.960736 40.2455C-0.968525 49.9445 0.0216418 59.9979 3.80602 69.1342C7.59041 78.2705 13.999 86.0794 22.2215 91.5735C28.7047 95.9054 36.086 98.6448 43.7661 99.6099C47.191 100.04 50 97.2018 50 93.75V93.75C50 90.2982 47.1827 87.553 43.7788 86.9804C38.5758 86.1051 33.592 84.1374 29.1661 81.1801C22.9993 77.0596 18.1928 71.2029 15.3545 64.3506C12.5162 57.4984 11.7736 49.9584 13.2206 42.6841C14.6675 35.4098 18.239 28.728 23.4835 23.4835C28.728 18.239 35.4098 14.6675 42.6841 13.2206C49.9584 11.7736 57.4984 12.5162 64.3506 15.3545C71.2029 18.1928 77.0596 22.9993 81.1801 29.1661C84.1374 33.592 86.1051 38.5758 86.9804 43.7788C87.553 47.1827 90.2982 50 93.75 50V50Z" fill="#6520F9"/>
</svg>
