<svg width="24" height="24" viewBox="0 0 24 24" fill="none" xmlns="http://www.w3.org/2000/svg">
<path d="M17 9C17 11.7614 14.7614 14 12 14C9.23858 14 7 11.7614 7 9C7 6.23858 9.23858 4 12 4C14.7614 4 17 6.23858 17 9ZM8.5 9C8.5 10.933 10.067 12.5 12 12.5C13.933 12.5 15.5 10.933 15.5 9C15.5 7.067 13.933 5.5 12 5.5C10.067 5.5 8.5 7.067 8.5 9Z" fill="white"/>
<ellipse cx="12" cy="19" rx="9" ry="4" transform="rotate(-180 12 19)" fill="white"/>
<path d="M24 12C24 18.6274 18.6274 24 12 24C5.37258 24 0 18.6274 0 12C0 5.37258 5.37258 0 12 0C18.6274 0 24 5.37258 24 12ZM1.8 12C1.8 17.6333 6.3667 22.2 12 22.2C17.6333 22.2 22.2 17.6333 22.2 12C22.2 6.3667 17.6333 1.8 12 1.8C6.3667 1.8 1.8 6.3667 1.8 12Z" fill="white"/>
</svg>
