<svg width="250" height="150" viewBox="0 0 250 150" fill="none" xmlns="http://www.w3.org/2000/svg">
<rect x="150" y="15" width="90" height="120" rx="5" fill="white" fill-opacity="0.5"/>
<path d="M166.426 29H164.956V23.0771H162.109V29H160.645V21.8906H166.426V29ZM167.402 26.3096C167.402 25.7855 167.503 25.3184 167.705 24.9082C167.907 24.498 168.197 24.1807 168.574 23.9561C168.955 23.7314 169.396 23.6191 169.897 23.6191C170.61 23.6191 171.191 23.8372 171.641 24.2734C172.093 24.7096 172.345 25.3021 172.397 26.0508L172.407 26.4121C172.407 27.2227 172.181 27.8737 171.729 28.3652C171.276 28.8535 170.669 29.0977 169.907 29.0977C169.146 29.0977 168.537 28.8535 168.081 28.3652C167.629 27.877 167.402 27.2129 167.402 26.373V26.3096ZM168.813 26.4121C168.813 26.9134 168.908 27.2975 169.097 27.5645C169.285 27.8281 169.556 27.96 169.907 27.96C170.249 27.96 170.516 27.8298 170.708 27.5693C170.9 27.3057 170.996 26.8857 170.996 26.3096C170.996 25.818 170.9 25.4372 170.708 25.167C170.516 24.8968 170.246 24.7617 169.897 24.7617C169.552 24.7617 169.285 24.8968 169.097 25.167C168.908 25.4339 168.813 25.849 168.813 26.4121ZM175.347 27.0518H174.78V29H173.369V23.7168H174.78V25.7041H175.283L176.436 23.7168H178.218L176.489 26.2314L178.379 29H176.499L175.347 27.0518ZM180.884 27.0029L181.86 23.7168H183.374L181.25 29.8203L181.133 30.0986C180.817 30.7887 180.296 31.1338 179.57 31.1338C179.365 31.1338 179.157 31.1029 178.945 31.041V29.9717L179.16 29.9766C179.427 29.9766 179.626 29.9359 179.756 29.8545C179.889 29.7731 179.993 29.638 180.068 29.4492L180.234 29.0146L178.384 23.7168H179.902L180.884 27.0029ZM188.525 29H187.109V24.8594H185.342V29H183.931V23.7168H188.525V29ZM192.666 29C192.601 28.873 192.554 28.7152 192.524 28.5264C192.183 28.9072 191.738 29.0977 191.191 29.0977C190.674 29.0977 190.244 28.9479 189.902 28.6484C189.564 28.349 189.395 27.9714 189.395 27.5156C189.395 26.9557 189.601 26.526 190.015 26.2266C190.431 25.9271 191.032 25.7757 191.816 25.7725H192.466V25.4697C192.466 25.2256 192.402 25.0303 192.275 24.8838C192.152 24.7373 191.955 24.6641 191.685 24.6641C191.447 24.6641 191.26 24.721 191.123 24.835C190.99 24.9489 190.923 25.1051 190.923 25.3037H189.512C189.512 24.9977 189.606 24.7145 189.795 24.4541C189.984 24.1937 190.251 23.9902 190.596 23.8438C190.941 23.694 191.328 23.6191 191.758 23.6191C192.409 23.6191 192.925 23.7835 193.306 24.1123C193.69 24.4378 193.882 24.8968 193.882 25.4893V27.7793C193.885 28.2806 193.955 28.6598 194.092 28.917V29H192.666ZM191.499 28.0186C191.707 28.0186 191.899 27.973 192.075 27.8818C192.251 27.7874 192.381 27.6621 192.466 27.5059V26.5977H191.938C191.232 26.5977 190.856 26.8418 190.811 27.3301L190.806 27.4131C190.806 27.5889 190.868 27.7337 190.991 27.8477C191.115 27.9616 191.284 28.0186 191.499 28.0186ZM199.272 24.8496H197.578V29H196.162V24.8496H194.497V23.7168H199.272V24.8496ZM202.104 29.0977C201.33 29.0977 200.698 28.86 200.21 28.3848C199.725 27.9095 199.482 27.2764 199.482 26.4854V26.3486C199.482 25.818 199.585 25.3444 199.79 24.9277C199.995 24.5078 200.285 24.1855 200.659 23.9609C201.037 23.7331 201.466 23.6191 201.948 23.6191C202.671 23.6191 203.239 23.847 203.652 24.3027C204.069 24.7585 204.277 25.4046 204.277 26.2412V26.8174H200.913C200.959 27.1624 201.095 27.4391 201.323 27.6475C201.554 27.8558 201.846 27.96 202.197 27.96C202.741 27.96 203.166 27.763 203.472 27.3691L204.165 28.1455C203.953 28.445 203.667 28.6794 203.306 28.8486C202.944 29.0146 202.544 29.0977 202.104 29.0977ZM201.943 24.7617C201.663 24.7617 201.436 24.8561 201.26 25.0449C201.087 25.2337 200.977 25.5039 200.928 25.8555H202.891V25.7432C202.884 25.4307 202.799 25.1898 202.637 25.0205C202.474 24.848 202.243 24.7617 201.943 24.7617ZM209.678 23.7168V29H208.267V24.8594H207.021L206.934 26.4902C206.878 27.3594 206.707 27.9925 206.421 28.3896C206.134 28.7868 205.708 28.9902 205.142 29H204.663L204.648 27.8525L204.824 27.8379C205.078 27.8184 205.264 27.6686 205.381 27.3887C205.498 27.1087 205.571 26.6318 205.601 25.958L205.698 23.7168H209.678ZM212.275 25.2646H213.286C213.742 25.2646 214.142 25.3411 214.487 25.4941C214.832 25.6471 215.096 25.8669 215.278 26.1533C215.464 26.4365 215.557 26.7669 215.557 27.1445C215.557 27.7012 215.35 28.1504 214.937 28.4922C214.526 28.8307 213.966 29 213.257 29H210.859V23.7168H212.275V25.2646ZM212.275 26.3975V27.8721H213.276C213.556 27.8721 213.771 27.807 213.921 27.6768C214.071 27.5465 214.146 27.3691 214.146 27.1445C214.146 26.9167 214.072 26.736 213.926 26.6025C213.779 26.4658 213.563 26.3975 213.276 26.3975H212.275Z" fill="#6520F9"/>
<path d="M165.986 54.0771H163.809V60H162.344V54.0771H160.195V52.8906H165.986V54.0771ZM165.498 57.3096C165.498 56.7855 165.599 56.3184 165.801 55.9082C166.003 55.498 166.292 55.1807 166.67 54.9561C167.051 54.7314 167.492 54.6191 167.993 54.6191C168.706 54.6191 169.287 54.8372 169.736 55.2734C170.189 55.7096 170.441 56.3021 170.493 57.0508L170.503 57.4121C170.503 58.2227 170.277 58.8737 169.824 59.3652C169.372 59.8535 168.765 60.0977 168.003 60.0977C167.241 60.0977 166.632 59.8535 166.177 59.3652C165.724 58.877 165.498 58.2129 165.498 57.373V57.3096ZM166.909 57.4121C166.909 57.9134 167.004 58.2975 167.192 58.5645C167.381 58.8281 167.651 58.96 168.003 58.96C168.345 58.96 168.612 58.8298 168.804 58.5693C168.996 58.3057 169.092 57.8857 169.092 57.3096C169.092 56.818 168.996 56.4372 168.804 56.167C168.612 55.8968 168.341 55.7617 167.993 55.7617C167.648 55.7617 167.381 55.8968 167.192 56.167C167.004 56.4339 166.909 56.849 166.909 57.4121ZM171.465 60V54.7168H173.672C174.391 54.7168 174.943 54.8438 175.327 55.0977C175.711 55.3516 175.903 55.7161 175.903 56.1914C175.903 56.4355 175.822 56.6553 175.659 56.8506C175.5 57.0426 175.265 57.1908 174.956 57.2949C175.334 57.3665 175.63 57.5081 175.845 57.7197C176.063 57.9281 176.172 58.1852 176.172 58.4912C176.172 58.9827 175.986 59.3571 175.615 59.6143C175.247 59.8714 174.712 60 174.009 60H171.465ZM172.876 57.8076V58.8721H174.014C174.512 58.8721 174.761 58.6979 174.761 58.3496C174.761 57.9948 174.523 57.8141 174.048 57.8076H172.876ZM172.876 56.8604H173.75C174.245 56.8538 174.492 56.6943 174.492 56.3818C174.492 56.1898 174.424 56.0531 174.287 55.9717C174.154 55.8903 173.949 55.8496 173.672 55.8496H172.876V56.8604ZM180.098 60C180.033 59.873 179.985 59.7152 179.956 59.5264C179.614 59.9072 179.17 60.0977 178.623 60.0977C178.105 60.0977 177.676 59.9479 177.334 59.6484C176.995 59.349 176.826 58.9714 176.826 58.5156C176.826 57.9557 177.033 57.526 177.446 57.2266C177.863 56.9271 178.464 56.7757 179.248 56.7725H179.897V56.4697C179.897 56.2256 179.834 56.0303 179.707 55.8838C179.583 55.7373 179.386 55.6641 179.116 55.6641C178.879 55.6641 178.691 55.721 178.555 55.835C178.421 55.9489 178.354 56.1051 178.354 56.3037H176.943C176.943 55.9977 177.038 55.7145 177.227 55.4541C177.415 55.1937 177.682 54.9902 178.027 54.8438C178.372 54.694 178.76 54.6191 179.189 54.6191C179.84 54.6191 180.356 54.7835 180.737 55.1123C181.121 55.4378 181.313 55.8968 181.313 56.4893V58.7793C181.317 59.2806 181.387 59.6598 181.523 59.917V60H180.098ZM178.931 59.0186C179.139 59.0186 179.331 58.973 179.507 58.8818C179.683 58.7874 179.813 58.6621 179.897 58.5059V57.5977H179.37C178.664 57.5977 178.288 57.8418 178.242 58.3301L178.237 58.4131C178.237 58.5889 178.299 58.7337 178.423 58.8477C178.547 58.9616 178.716 59.0186 178.931 59.0186ZM187.153 57.4072C187.153 58.221 186.968 58.8737 186.597 59.3652C186.229 59.8535 185.731 60.0977 185.103 60.0977C184.569 60.0977 184.137 59.9121 183.809 59.541V62.0312H182.397V54.7168H183.706L183.755 55.2344C184.097 54.8242 184.543 54.6191 185.093 54.6191C185.744 54.6191 186.25 54.86 186.611 55.3418C186.973 55.8236 187.153 56.4876 187.153 57.334V57.4072ZM185.742 57.3047C185.742 56.8132 185.654 56.4339 185.479 56.167C185.306 55.9001 185.054 55.7666 184.722 55.7666C184.279 55.7666 183.975 55.9359 183.809 56.2744V58.4375C183.981 58.7858 184.289 58.96 184.731 58.96C185.405 58.96 185.742 58.4082 185.742 57.3047Z" fill="#6520F9"/>
<rect x="155" y="112" width="80" height="1" rx="0.5" fill="#6520F9"/>
<path d="M162.954 124.095H162.109V127H160.645V119.891H162.109V122.737H162.778L164.517 119.891H166.304L164.111 123.255L166.533 127H164.785L162.954 124.095ZM169.277 124.31C169.277 123.785 169.378 123.318 169.58 122.908C169.782 122.498 170.072 122.181 170.449 121.956C170.83 121.731 171.271 121.619 171.772 121.619C172.485 121.619 173.066 121.837 173.516 122.273C173.968 122.71 174.22 123.302 174.272 124.051L174.282 124.412C174.282 125.223 174.056 125.874 173.604 126.365C173.151 126.854 172.544 127.098 171.782 127.098C171.021 127.098 170.412 126.854 169.956 126.365C169.504 125.877 169.277 125.213 169.277 124.373V124.31ZM170.688 124.412C170.688 124.913 170.783 125.298 170.972 125.564C171.16 125.828 171.431 125.96 171.782 125.96C172.124 125.96 172.391 125.83 172.583 125.569C172.775 125.306 172.871 124.886 172.871 124.31C172.871 123.818 172.775 123.437 172.583 123.167C172.391 122.897 172.121 122.762 171.772 122.762C171.427 122.762 171.16 122.897 170.972 123.167C170.783 123.434 170.688 123.849 170.688 124.412ZM179.746 127H178.33V122.859H176.562V127H175.151V121.717H179.746V127ZM185.42 121.717V127H184.009V122.859H182.764L182.676 124.49C182.62 125.359 182.45 125.993 182.163 126.39C181.877 126.787 181.45 126.99 180.884 127H180.405L180.391 125.853L180.566 125.838C180.82 125.818 181.006 125.669 181.123 125.389C181.24 125.109 181.313 124.632 181.343 123.958L181.44 121.717H185.42ZM189.57 127C189.505 126.873 189.458 126.715 189.429 126.526C189.087 126.907 188.643 127.098 188.096 127.098C187.578 127.098 187.148 126.948 186.807 126.648C186.468 126.349 186.299 125.971 186.299 125.516C186.299 124.956 186.506 124.526 186.919 124.227C187.336 123.927 187.936 123.776 188.721 123.772H189.37V123.47C189.37 123.226 189.307 123.03 189.18 122.884C189.056 122.737 188.859 122.664 188.589 122.664C188.351 122.664 188.164 122.721 188.027 122.835C187.894 122.949 187.827 123.105 187.827 123.304H186.416C186.416 122.998 186.51 122.715 186.699 122.454C186.888 122.194 187.155 121.99 187.5 121.844C187.845 121.694 188.232 121.619 188.662 121.619C189.313 121.619 189.829 121.784 190.21 122.112C190.594 122.438 190.786 122.897 190.786 123.489V125.779C190.789 126.281 190.859 126.66 190.996 126.917V127H189.57ZM188.403 126.019C188.612 126.019 188.804 125.973 188.979 125.882C189.155 125.787 189.285 125.662 189.37 125.506V124.598H188.843C188.136 124.598 187.76 124.842 187.715 125.33L187.71 125.413C187.71 125.589 187.772 125.734 187.896 125.848C188.019 125.962 188.188 126.019 188.403 126.019ZM196.177 122.85H194.482V127H193.066V122.85H191.401V121.717H196.177V122.85ZM199.009 127.098C198.234 127.098 197.603 126.86 197.114 126.385C196.629 125.91 196.387 125.276 196.387 124.485V124.349C196.387 123.818 196.489 123.344 196.694 122.928C196.899 122.508 197.189 122.186 197.563 121.961C197.941 121.733 198.371 121.619 198.853 121.619C199.575 121.619 200.143 121.847 200.557 122.303C200.973 122.758 201.182 123.405 201.182 124.241V124.817H197.817C197.863 125.162 198 125.439 198.228 125.647C198.459 125.856 198.75 125.96 199.102 125.96C199.645 125.96 200.07 125.763 200.376 125.369L201.069 126.146C200.858 126.445 200.571 126.679 200.21 126.849C199.849 127.015 199.448 127.098 199.009 127.098ZM198.848 122.762C198.568 122.762 198.34 122.856 198.164 123.045C197.992 123.234 197.881 123.504 197.832 123.855H199.795V123.743C199.788 123.431 199.704 123.19 199.541 123.021C199.378 122.848 199.147 122.762 198.848 122.762ZM202.056 126.307C202.056 126.082 202.131 125.9 202.28 125.76C202.433 125.62 202.624 125.55 202.852 125.55C203.083 125.55 203.273 125.62 203.423 125.76C203.576 125.9 203.652 126.082 203.652 126.307C203.652 126.528 203.577 126.709 203.428 126.849C203.278 126.985 203.086 127.054 202.852 127.054C202.62 127.054 202.43 126.985 202.28 126.849C202.131 126.709 202.056 126.528 202.056 126.307ZM202.056 122.308C202.056 122.083 202.131 121.901 202.28 121.761C202.433 121.621 202.624 121.551 202.852 121.551C203.083 121.551 203.273 121.621 203.423 121.761C203.576 121.901 203.652 122.083 203.652 122.308C203.652 122.529 203.577 122.71 203.428 122.85C203.278 122.986 203.086 123.055 202.852 123.055C202.62 123.055 202.43 122.986 202.28 122.85C202.131 122.71 202.056 122.529 202.056 122.308Z" fill="#6520F9"/>
<path d="M207.451 123.504L207.861 119.891H211.846V121.067H209.019L208.843 122.596C209.178 122.417 209.535 122.327 209.912 122.327C210.589 122.327 211.12 122.537 211.504 122.957C211.888 123.377 212.08 123.965 212.08 124.72C212.08 125.179 211.982 125.59 211.787 125.955C211.595 126.316 211.318 126.598 210.957 126.8C210.596 126.998 210.169 127.098 209.678 127.098C209.248 127.098 208.849 127.011 208.481 126.839C208.114 126.663 207.822 126.417 207.607 126.102C207.396 125.786 207.284 125.426 207.271 125.022H208.667C208.696 125.319 208.799 125.55 208.975 125.716C209.154 125.879 209.386 125.96 209.673 125.96C209.992 125.96 210.238 125.846 210.41 125.618C210.583 125.387 210.669 125.062 210.669 124.642C210.669 124.238 210.57 123.929 210.371 123.714C210.173 123.499 209.891 123.392 209.526 123.392C209.191 123.392 208.919 123.479 208.711 123.655L208.574 123.782L207.451 123.504ZM217.769 124.061C217.769 125.044 217.565 125.796 217.158 126.316C216.751 126.837 216.156 127.098 215.371 127.098C214.596 127.098 214.004 126.842 213.594 126.331C213.184 125.82 212.974 125.088 212.964 124.134V122.825C212.964 121.832 213.169 121.079 213.579 120.564C213.993 120.05 214.587 119.793 215.361 119.793C216.136 119.793 216.729 120.049 217.139 120.56C217.549 121.067 217.759 121.798 217.769 122.752V124.061ZM216.357 122.625C216.357 122.036 216.276 121.608 216.113 121.341C215.954 121.071 215.703 120.936 215.361 120.936C215.029 120.936 214.784 121.064 214.624 121.321C214.468 121.575 214.385 121.974 214.375 122.518V124.246C214.375 124.826 214.453 125.257 214.609 125.54C214.769 125.82 215.023 125.96 215.371 125.96C215.716 125.96 215.965 125.825 216.118 125.555C216.271 125.285 216.351 124.871 216.357 124.314V122.625ZM224.99 126.053H223.438V127H221.973V126.053H220.981V124.866H221.973V124.495H220.981V123.309H221.973V119.891H224.736C225.27 119.891 225.739 119.987 226.143 120.179C226.546 120.371 226.859 120.646 227.08 121.004C227.305 121.359 227.417 121.764 227.417 122.22C227.417 122.923 227.178 123.478 226.699 123.885C226.224 124.292 225.562 124.495 224.712 124.495H223.438V124.866H224.99V126.053ZM223.438 123.309H224.702C225.522 123.309 225.933 122.949 225.933 122.229C225.933 121.888 225.828 121.613 225.62 121.404C225.412 121.193 225.124 121.085 224.756 121.082H223.438V123.309Z" fill="black"/>
<path d="M177.527 38.3125L178.988 42.4375L180.441 38.3125H181.98V44H180.805V42.4453L180.922 39.7617L179.387 44H178.582L177.051 39.7656L177.168 42.4453V44H175.996V38.3125H177.527ZM185.379 44C185.327 43.8984 185.289 43.7721 185.266 43.6211C184.992 43.9258 184.637 44.0781 184.199 44.0781C183.785 44.0781 183.441 43.9583 183.168 43.7188C182.897 43.4792 182.762 43.1771 182.762 42.8125C182.762 42.3646 182.927 42.0208 183.258 41.7812C183.591 41.5417 184.072 41.4206 184.699 41.418H185.219V41.1758C185.219 40.9805 185.168 40.8242 185.066 40.707C184.967 40.5898 184.81 40.5312 184.594 40.5312C184.404 40.5312 184.254 40.5768 184.145 40.668C184.038 40.7591 183.984 40.8841 183.984 41.043H182.855C182.855 40.7982 182.931 40.5716 183.082 40.3633C183.233 40.1549 183.447 39.9922 183.723 39.875C183.999 39.7552 184.309 39.6953 184.652 39.6953C185.173 39.6953 185.586 39.8268 185.891 40.0898C186.198 40.3503 186.352 40.7174 186.352 41.1914V43.0234C186.354 43.4245 186.41 43.7279 186.52 43.9336V44H185.379ZM184.445 43.2148C184.612 43.2148 184.766 43.1784 184.906 43.1055C185.047 43.0299 185.151 42.9297 185.219 42.8047V42.0781H184.797C184.232 42.0781 183.931 42.2734 183.895 42.6641L183.891 42.7305C183.891 42.8711 183.94 42.987 184.039 43.0781C184.138 43.1693 184.273 43.2148 184.445 43.2148ZM188.875 42.4414H188.422V44H187.293V39.7734H188.422V41.3633H188.824L189.746 39.7734H191.172L189.789 41.7852L191.301 44H189.797L188.875 42.4414ZM193.422 43.168C193.63 43.168 193.799 43.1107 193.93 42.9961C194.06 42.8815 194.128 42.7292 194.133 42.5391H195.191C195.189 42.8255 195.111 43.0885 194.957 43.3281C194.803 43.5651 194.592 43.75 194.324 43.8828C194.059 44.013 193.764 44.0781 193.441 44.0781C192.837 44.0781 192.361 43.8867 192.012 43.5039C191.663 43.1185 191.488 42.5872 191.488 41.9102V41.8359C191.488 41.1849 191.661 40.6654 192.008 40.2773C192.354 39.8893 192.829 39.6953 193.434 39.6953C193.962 39.6953 194.385 39.8464 194.703 40.1484C195.023 40.4479 195.186 40.8477 195.191 41.3477H194.133C194.128 41.1289 194.06 40.9518 193.93 40.8164C193.799 40.6784 193.628 40.6094 193.414 40.6094C193.151 40.6094 192.952 40.7057 192.816 40.8984C192.684 41.0885 192.617 41.3984 192.617 41.8281V41.9453C192.617 42.3802 192.684 42.6927 192.816 42.8828C192.949 43.0729 193.151 43.168 193.422 43.168ZM198.383 39.7734H199.512V44H198.383V41.3906L196.969 44H195.836V39.7734H196.969V42.3789L198.383 39.7734ZM202.949 42.668L204.055 39.7734H205.469V44H204.34V41.4062L203.328 44H202.57L201.578 41.4492V44H200.449V39.7734H201.852L202.949 42.668ZM210.375 41.6758H209.699V44H208.527V38.3125H209.699V40.5898H210.234L211.625 38.3125H213.055L211.301 41.0039L213.238 44H211.84L210.375 41.6758ZM213.676 43.4453C213.676 43.2656 213.736 43.1198 213.855 43.0078C213.978 42.8958 214.13 42.8398 214.312 42.8398C214.497 42.8398 214.65 42.8958 214.77 43.0078C214.892 43.1198 214.953 43.2656 214.953 43.4453C214.953 43.6224 214.893 43.7669 214.773 43.8789C214.654 43.9883 214.5 44.043 214.312 44.043C214.128 44.043 213.975 43.9883 213.855 43.8789C213.736 43.7669 213.676 43.6224 213.676 43.4453Z" fill="black"/>
<path d="M181.227 73.1055C181.182 73.7174 180.956 74.1992 180.547 74.5508C180.141 74.9023 179.604 75.0781 178.938 75.0781C178.208 75.0781 177.634 74.8333 177.215 74.3438C176.798 73.8516 176.59 73.1771 176.59 72.3203V71.9727C176.59 71.4258 176.686 70.944 176.879 70.5273C177.072 70.1107 177.346 69.7917 177.703 69.5703C178.062 69.3464 178.479 69.2344 178.953 69.2344C179.609 69.2344 180.138 69.4102 180.539 69.7617C180.94 70.1133 181.172 70.6068 181.234 71.2422H180.062C180.034 70.875 179.931 70.6094 179.754 70.4453C179.579 70.2786 179.312 70.1953 178.953 70.1953C178.562 70.1953 178.27 70.3359 178.074 70.6172C177.882 70.8958 177.783 71.3294 177.777 71.918V72.3477C177.777 72.9622 177.87 73.4115 178.055 73.6953C178.242 73.9792 178.536 74.1211 178.938 74.1211C179.299 74.1211 179.569 74.0391 179.746 73.875C179.926 73.7083 180.029 73.4518 180.055 73.1055H181.227ZM181.746 72.8477C181.746 72.4284 181.827 72.0547 181.988 71.7266C182.15 71.3984 182.382 71.1445 182.684 70.9648C182.988 70.7852 183.341 70.6953 183.742 70.6953C184.312 70.6953 184.777 70.8698 185.137 71.2188C185.499 71.5677 185.701 72.0417 185.742 72.6406L185.75 72.9297C185.75 73.5781 185.569 74.099 185.207 74.4922C184.845 74.8828 184.359 75.0781 183.75 75.0781C183.141 75.0781 182.654 74.8828 182.289 74.4922C181.927 74.1016 181.746 73.5703 181.746 72.8984V72.8477ZM182.875 72.9297C182.875 73.3307 182.951 73.638 183.102 73.8516C183.253 74.0625 183.469 74.168 183.75 74.168C184.023 74.168 184.237 74.0638 184.391 73.8555C184.544 73.6445 184.621 73.3086 184.621 72.8477C184.621 72.4544 184.544 72.1497 184.391 71.9336C184.237 71.7174 184.021 71.6094 183.742 71.6094C183.466 71.6094 183.253 71.7174 183.102 71.9336C182.951 72.1471 182.875 72.4792 182.875 72.9297ZM188.203 74.168C188.411 74.168 188.581 74.1107 188.711 73.9961C188.841 73.8815 188.909 73.7292 188.914 73.5391H189.973C189.97 73.8255 189.892 74.0885 189.738 74.3281C189.585 74.5651 189.374 74.75 189.105 74.8828C188.84 75.013 188.546 75.0781 188.223 75.0781C187.618 75.0781 187.142 74.8867 186.793 74.5039C186.444 74.1185 186.27 73.5872 186.27 72.9102V72.8359C186.27 72.1849 186.443 71.6654 186.789 71.2773C187.135 70.8893 187.611 70.6953 188.215 70.6953C188.743 70.6953 189.167 70.8464 189.484 71.1484C189.805 71.4479 189.967 71.8477 189.973 72.3477H188.914C188.909 72.1289 188.841 71.9518 188.711 71.8164C188.581 71.6784 188.409 71.6094 188.195 71.6094C187.932 71.6094 187.733 71.7057 187.598 71.8984C187.465 72.0885 187.398 72.3984 187.398 72.8281V72.9453C187.398 73.3802 187.465 73.6927 187.598 73.8828C187.73 74.0729 187.932 74.168 188.203 74.168ZM193.066 75C193.014 74.8984 192.977 74.7721 192.953 74.6211C192.68 74.9258 192.324 75.0781 191.887 75.0781C191.473 75.0781 191.129 74.9583 190.855 74.7188C190.585 74.4792 190.449 74.1771 190.449 73.8125C190.449 73.3646 190.615 73.0208 190.945 72.7812C191.279 72.5417 191.759 72.4206 192.387 72.418H192.906V72.1758C192.906 71.9805 192.855 71.8242 192.754 71.707C192.655 71.5898 192.497 71.5312 192.281 71.5312C192.091 71.5312 191.941 71.5768 191.832 71.668C191.725 71.7591 191.672 71.8841 191.672 72.043H190.543C190.543 71.7982 190.618 71.5716 190.77 71.3633C190.921 71.1549 191.134 70.9922 191.41 70.875C191.686 70.7552 191.996 70.6953 192.34 70.6953C192.861 70.6953 193.273 70.8268 193.578 71.0898C193.885 71.3503 194.039 71.7174 194.039 72.1914V74.0234C194.042 74.4245 194.098 74.7279 194.207 74.9336V75H193.066ZM192.133 74.2148C192.299 74.2148 192.453 74.1784 192.594 74.1055C192.734 74.0299 192.839 73.9297 192.906 73.8047V73.0781H192.484C191.919 73.0781 191.618 73.2734 191.582 73.6641L191.578 73.7305C191.578 73.8711 191.628 73.987 191.727 74.0781C191.826 74.1693 191.961 74.2148 192.133 74.2148ZM197.102 73.0195H194.902V72.1094H197.102V73.0195ZM202.547 73.1055C202.503 73.7174 202.276 74.1992 201.867 74.5508C201.461 74.9023 200.924 75.0781 200.258 75.0781C199.529 75.0781 198.954 74.8333 198.535 74.3438C198.118 73.8516 197.91 73.1771 197.91 72.3203V71.9727C197.91 71.4258 198.007 70.944 198.199 70.5273C198.392 70.1107 198.667 69.7917 199.023 69.5703C199.383 69.3464 199.799 69.2344 200.273 69.2344C200.93 69.2344 201.458 69.4102 201.859 69.7617C202.26 70.1133 202.492 70.6068 202.555 71.2422H201.383C201.354 70.875 201.251 70.6094 201.074 70.4453C200.9 70.2786 200.633 70.1953 200.273 70.1953C199.883 70.1953 199.59 70.3359 199.395 70.6172C199.202 70.8958 199.103 71.3294 199.098 71.918V72.3477C199.098 72.9622 199.19 73.4115 199.375 73.6953C199.562 73.9792 199.857 74.1211 200.258 74.1211C200.62 74.1211 200.889 74.0391 201.066 73.875C201.246 73.7083 201.349 73.4518 201.375 73.1055H202.547ZM203.066 72.8477C203.066 72.4284 203.147 72.0547 203.309 71.7266C203.47 71.3984 203.702 71.1445 204.004 70.9648C204.309 70.7852 204.661 70.6953 205.062 70.6953C205.633 70.6953 206.098 70.8698 206.457 71.2188C206.819 71.5677 207.021 72.0417 207.062 72.6406L207.07 72.9297C207.07 73.5781 206.889 74.099 206.527 74.4922C206.165 74.8828 205.68 75.0781 205.07 75.0781C204.461 75.0781 203.974 74.8828 203.609 74.4922C203.247 74.1016 203.066 73.5703 203.066 72.8984V72.8477ZM204.195 72.9297C204.195 73.3307 204.271 73.638 204.422 73.8516C204.573 74.0625 204.789 74.168 205.07 74.168C205.344 74.168 205.557 74.0638 205.711 73.8555C205.865 73.6445 205.941 73.3086 205.941 72.8477C205.941 72.4544 205.865 72.1497 205.711 71.9336C205.557 71.7174 205.341 71.6094 205.062 71.6094C204.786 71.6094 204.573 71.7174 204.422 71.9336C204.271 72.1471 204.195 72.4792 204.195 72.9297ZM208.957 75H207.824V69H208.957V75ZM212.34 75C212.288 74.8984 212.25 74.7721 212.227 74.6211C211.953 74.9258 211.598 75.0781 211.16 75.0781C210.746 75.0781 210.402 74.9583 210.129 74.7188C209.858 74.4792 209.723 74.1771 209.723 73.8125C209.723 73.3646 209.888 73.0208 210.219 72.7812C210.552 72.5417 211.033 72.4206 211.66 72.418H212.18V72.1758C212.18 71.9805 212.129 71.8242 212.027 71.707C211.928 71.5898 211.771 71.5312 211.555 71.5312C211.365 71.5312 211.215 71.5768 211.105 71.668C210.999 71.7591 210.945 71.8841 210.945 72.043H209.816C209.816 71.7982 209.892 71.5716 210.043 71.3633C210.194 71.1549 210.408 70.9922 210.684 70.875C210.96 70.7552 211.27 70.6953 211.613 70.6953C212.134 70.6953 212.547 70.8268 212.852 71.0898C213.159 71.3503 213.312 71.7174 213.312 72.1914V74.0234C213.315 74.4245 213.371 74.7279 213.48 74.9336V75H212.34ZM211.406 74.2148C211.573 74.2148 211.727 74.1784 211.867 74.1055C212.008 74.0299 212.112 73.9297 212.18 73.8047V73.0781H211.758C211.193 73.0781 210.892 73.2734 210.855 73.6641L210.852 73.7305C210.852 73.8711 210.901 73.987 211 74.0781C211.099 74.1693 211.234 74.2148 211.406 74.2148Z" fill="black"/>
<path d="M15.3438 11.3125V17H14.168V12.2617H12.6523L12.5586 14.2695C12.5195 14.9466 12.4336 15.4805 12.3008 15.8711C12.168 16.2591 11.974 16.5443 11.7188 16.7266C11.4635 16.9062 11.1146 16.9974 10.6719 17H10.3672V16.0586L10.5625 16.0391C10.8568 16 11.0664 15.8307 11.1914 15.5312C11.319 15.2292 11.3997 14.6927 11.4336 13.9219L11.5312 11.3125H15.3438ZM19.6484 15.8281H17.5938L17.2031 17H15.957L18.0742 11.3125H19.1602L21.2891 17H20.043L19.6484 15.8281ZM17.9102 14.8789H19.332L18.6172 12.75L17.9102 14.8789ZM21.8203 17V11.3125H23.8125C24.5026 11.3125 25.026 11.4453 25.3828 11.7109C25.7396 11.974 25.918 12.3607 25.918 12.8711C25.918 13.1497 25.8464 13.3958 25.7031 13.6094C25.5599 13.8203 25.3607 13.9753 25.1055 14.0742C25.3971 14.1471 25.6263 14.2943 25.793 14.5156C25.9622 14.737 26.0469 15.0078 26.0469 15.3281C26.0469 15.875 25.8724 16.2891 25.5234 16.5703C25.1745 16.8516 24.6771 16.9948 24.0312 17H21.8203ZM22.9922 14.5234V16.0586H23.9961C24.2721 16.0586 24.487 15.9935 24.6406 15.8633C24.7969 15.7305 24.875 15.5482 24.875 15.3164C24.875 14.7956 24.6055 14.5312 24.0664 14.5234H22.9922ZM22.9922 13.6953H23.8594C24.4505 13.6849 24.7461 13.4492 24.7461 12.9883C24.7461 12.7305 24.6706 12.5456 24.5195 12.4336C24.3711 12.319 24.1354 12.2617 23.8125 12.2617H22.9922V13.6953ZM28.7852 14.6758H28.1094V17H26.9375V11.3125H28.1094V13.5898H28.6445L30.0352 11.3125H31.4648L29.7109 14.0039L31.6484 17H30.25L28.7852 14.6758ZM34.2344 14L35.2695 11.3125H36.5352L34.5469 16.0039L34.3867 16.3125C34.0924 16.8255 33.6419 17.082 33.0352 17.082L32.625 17.0664L32.6133 16.125C32.6758 16.1354 32.7773 16.1406 32.918 16.1406C33.082 16.1406 33.2135 16.112 33.3125 16.0547C33.4141 15.9974 33.4987 15.8919 33.5664 15.7383L33.7109 15.3672L31.7148 11.3125H32.9766L34.2344 14ZM41.5273 15.1055C41.4831 15.7174 41.2565 16.1992 40.8477 16.5508C40.4414 16.9023 39.9049 17.0781 39.2383 17.0781C38.5091 17.0781 37.9349 16.8333 37.5156 16.3438C37.099 15.8516 36.8906 15.1771 36.8906 14.3203V13.9727C36.8906 13.4258 36.987 12.944 37.1797 12.5273C37.3724 12.1107 37.6471 11.7917 38.0039 11.5703C38.3633 11.3464 38.7799 11.2344 39.2539 11.2344C39.9102 11.2344 40.4388 11.4102 40.8398 11.7617C41.2409 12.1133 41.4727 12.6068 41.5352 13.2422H40.3633C40.3346 12.875 40.2318 12.6094 40.0547 12.4453C39.8802 12.2786 39.6133 12.1953 39.2539 12.1953C38.8633 12.1953 38.5703 12.3359 38.375 12.6172C38.1823 12.8958 38.0833 13.3294 38.0781 13.918V14.3477C38.0781 14.9622 38.1706 15.4115 38.3555 15.6953C38.543 15.9792 38.8372 16.1211 39.2383 16.1211C39.6003 16.1211 39.8698 16.0391 40.0469 15.875C40.2266 15.7083 40.3294 15.4518 40.3555 15.1055H41.5273Z" fill="#6520F9"/>
<path d="M33.2591 100.411C32.6418 99.652 32.2052 98.7632 31.9785 97.8112L30.8218 92.957C30.8075 92.8972 30.8003 92.8357 30.8003 92.7742V89.1072H25.9003V92.7741C25.9003 92.8357 25.8931 92.8971 25.8788 92.9569L24.7221 97.8112C24.4952 98.7631 24.0588 99.652 23.4415 100.411C22.4513 101.629 21.0002 103.782 21.0002 105.934L28.3503 106.821L35.7003 105.934C35.7003 103.781 34.2493 101.629 33.2591 100.411V100.411Z" fill="#6F6571"/>
<path d="M34.9783 124.659C34.9152 124.155 34.9046 123.644 34.9469 123.137L35.6775 116.005C35.685 115.915 35.6906 115.824 35.6945 115.734L28.35 114.945L21.0056 115.734C21.0094 115.824 21.015 115.914 21.0226 116.005L21.7531 123.137C21.7954 123.644 21.7849 124.155 21.7218 124.659L21.0631 129.929C21.0211 130.265 21 130.603 21 130.942V132.067C21 133.871 22.4625 135.333 24.2666 135.333H32.4333C34.2375 135.333 35.7 133.871 35.7 132.067V130.942C35.7 130.603 35.6789 130.265 35.6369 129.929L34.9783 124.659Z" fill="#6F6571"/>
<path d="M33.4327 105.934V106.39L35.7004 106.176V105.934C35.7004 103.781 34.2493 101.629 33.2591 100.411C32.6418 99.652 32.2053 98.7632 31.9785 97.8112L30.8218 92.957C30.8075 92.8972 30.8003 92.8357 30.8003 92.7742V89.1072H28.5327V92.7741C28.5327 92.8357 28.5399 92.8971 28.5542 92.9569L29.7109 97.8111C29.9377 98.763 30.3742 99.6519 30.9915 100.411C31.9817 101.629 33.4327 103.781 33.4327 105.934V105.934Z" fill="#5E5161"/>
<path d="M34.9785 124.659C34.9154 124.154 34.9048 123.644 34.9471 123.137L35.6777 116.005C35.6904 115.853 35.6965 115.7 35.6985 115.548L33.4327 115.383V115.462C33.4327 115.643 33.4252 115.824 33.4101 116.005L32.6795 123.137C32.6372 123.644 32.6478 124.155 32.7109 124.659L33.3696 129.929C33.4116 130.265 33.4327 130.603 33.4327 130.942V132.067C33.4327 133.871 31.9702 135.333 30.166 135.333H32.4336C34.2378 135.333 35.7003 133.871 35.7003 132.067V130.942C35.7003 130.603 35.6792 130.265 35.6372 129.929L34.9785 124.659Z" fill="#5E5161"/>
<path d="M28.35 106.673C27.9417 106.673 27.6106 106.342 27.6106 105.934V102.667C27.6106 102.259 27.9417 101.927 28.35 101.927C28.7584 101.927 29.0895 102.259 29.0895 102.667V105.934C29.0895 106.342 28.7584 106.673 28.35 106.673Z" fill="#5E5161"/>
<path d="M28.35 119.74C27.9417 119.74 27.6106 119.409 27.6106 119V115.734C27.6106 115.326 27.9417 114.995 28.35 114.995C28.7584 114.995 29.0895 115.326 29.0895 115.734V119C29.0895 119.409 28.7584 119.74 28.35 119.74Z" fill="#5E5161"/>
<path d="M21 105.933H35.7001V115.734H21V105.933Z" fill="#E55964"/>
<path d="M31.6166 109.94H25.0832C24.6748 109.94 24.3438 109.609 24.3438 109.2C24.3438 108.792 24.6748 108.461 25.0832 108.461H31.6166C32.025 108.461 32.356 108.792 32.356 109.2C32.356 109.609 32.025 109.94 31.6166 109.94Z" fill="#FAF8FA"/>
<path d="M29.9835 113.206H26.7167C26.3084 113.206 25.9773 112.875 25.9773 112.467C25.9773 112.059 26.3084 111.728 26.7167 111.728H29.9835C30.3918 111.728 30.7229 112.059 30.7229 112.467C30.7229 112.875 30.3918 113.206 29.9835 113.206Z" fill="#FAF8FA"/>
<path d="M31.6166 132.807H25.0832C24.6748 132.807 24.3438 132.475 24.3438 132.067C24.3438 131.659 24.6748 131.328 25.0832 131.328H31.6166C32.025 131.328 32.356 131.659 32.356 132.067C32.356 132.475 32.025 132.807 31.6166 132.807Z" fill="#5E5161"/>
<path d="M30.8282 89.6001H25.8722C25.4367 89.6001 25.0835 89.247 25.0835 88.8114V87.911C25.0835 87.0397 25.7897 86.3335 26.661 86.3335H30.0394C30.9107 86.3335 31.6169 87.0397 31.6169 87.911V88.8114C31.6169 89.2471 31.2638 89.6001 30.8282 89.6001Z" fill="#E55964"/>
<path d="M30.0393 86.3335H27.7717C28.643 86.3335 29.3492 87.0397 29.3492 87.911V88.8114C29.3492 89.247 28.996 89.6001 28.5605 89.6001H30.8281C31.2637 89.6001 31.6168 89.247 31.6168 88.8114V87.911C31.6168 87.0397 30.9106 86.3335 30.0393 86.3335V86.3335Z" fill="#DB404F"/>
<path d="M27.1248 93.6063C27.5332 93.6063 27.8643 93.2753 27.8643 92.8669C27.8643 92.4585 27.5332 92.1274 27.1248 92.1274H25.8998V92.7742C25.8998 92.8358 25.8926 92.8972 25.8783 92.957L25.7236 93.6063H27.1248Z" fill="#5E5161"/>
<path d="M33.4326 105.933V115.462C33.4326 115.553 33.4307 115.643 33.427 115.734H35.6946C35.6984 115.643 35.7002 115.553 35.7002 115.462V105.933H33.4326Z" fill="#DB404F"/>
<g clip-path="url(#clip0)">
<rect x="25.5" y="122.5" width="6" height="6" fill="white"/>
<rect x="26" y="123" width="1" height="1" fill="#6520F9"/>
<rect x="27" y="125" width="1" height="1" fill="#6520F9"/>
<rect x="29" y="126" width="1" height="1" fill="#6520F9"/>
<rect x="30" y="126" width="1" height="1" fill="#6520F9"/>
<rect x="30" y="127" width="1" height="1" fill="#6520F9"/>
<rect x="28" y="127" width="1" height="1" fill="#6520F9"/>
<rect x="29" y="128" width="1" height="1" fill="#6520F9"/>
<rect x="31" y="124" width="1" height="1" fill="#6520F9"/>
<rect x="29" y="124" width="1" height="1" fill="#6520F9"/>
<rect x="26" y="128" width="1" height="1" fill="#6520F9"/>
<rect x="26" y="127" width="1" height="1" fill="#6520F9"/>
<rect x="30" y="123" width="1" height="1" fill="#6520F9"/>
<rect x="29" y="123" width="1" height="1" fill="#6520F9"/>
<rect x="28" y="124" width="1" height="1" fill="#6520F9"/>
<rect x="31" y="127" width="1" height="1" fill="#6520F9"/>
</g>
<rect x="25.5" y="122.5" width="6" height="6" stroke="#6520F9"/>
<path d="M97.8125 91.769L126.66 106.193C128.364 107.045 129.834 108.299 130.944 109.847C132.054 111.396 132.77 113.191 133.03 115.078L133.75 120.312H46.25L46.9703 115.078C47.23 113.191 47.9458 111.396 49.0557 109.847C50.1655 108.299 51.636 107.045 53.3398 106.193L82.1875 91.769H97.8125Z" fill="#EAEAE8"/>
<path d="M100.938 93.3315L97.8125 91.769V85.519H82.1875V91.769L79.0625 93.3315L90 98.4372L100.938 93.3315Z" fill="#FDC9A6"/>
<path d="M69.6875 62.4998V50.9459C69.6876 49.213 70.1155 47.5068 70.9332 45.9789C71.7509 44.4511 72.9331 43.1487 74.375 42.1873L75.6514 39.6346C76.8396 37.2581 78.8826 35.4188 81.3705 34.486L83.14 33.8219C87.5424 32.171 92.4122 32.2833 96.7338 34.1354C99.4934 35.3181 101.919 37.1635 103.794 39.508L106.823 43.2942C107.066 43.5975 107.325 43.8871 107.6 44.1617C108.46 45.0218 109.142 46.0429 109.607 47.1666C110.073 48.2904 110.313 49.4948 110.312 50.7112V62.4998H69.6875Z" fill="#5F4623"/>
<path d="M83.75 48.4375C83.3356 48.4375 82.9382 48.2729 82.6451 47.9799C82.3521 47.6868 82.1875 47.2894 82.1875 46.875V40.625C82.1875 40.2106 82.3521 39.8132 82.6451 39.5201C82.9382 39.2271 83.3356 39.0625 83.75 39.0625C84.1644 39.0625 84.5618 39.2271 84.8549 39.5201C85.1479 39.8132 85.3125 40.2106 85.3125 40.625V46.875C85.3125 47.2894 85.1479 47.6868 84.8549 47.9799C84.5618 48.2729 84.1644 48.4375 83.75 48.4375Z" fill="#48351B"/>
<path d="M90 48.4375C89.5856 48.4375 89.1882 48.2729 88.8951 47.9799C88.6021 47.6868 88.4375 47.2894 88.4375 46.875V39.0625C88.4375 38.6481 88.6021 38.2507 88.8951 37.9576C89.1882 37.6646 89.5856 37.5 90 37.5C90.4144 37.5 90.8118 37.6646 91.1049 37.9576C91.3979 38.2507 91.5625 38.6481 91.5625 39.0625V46.875C91.5625 47.2894 91.3979 47.6868 91.1049 47.9799C90.8118 48.2729 90.4144 48.4375 90 48.4375Z" fill="#48351B"/>
<path d="M96.25 48.4375C95.8356 48.4375 95.4382 48.2729 95.1451 47.9799C94.8521 47.6868 94.6875 47.2894 94.6875 46.875V40.625C94.6875 40.2106 94.8521 39.8132 95.1451 39.5201C95.4382 39.2271 95.8356 39.0625 96.25 39.0625C96.6644 39.0625 97.0618 39.2271 97.3549 39.5201C97.6479 39.8132 97.8125 40.2106 97.8125 40.625V46.875C97.8125 47.2894 97.6479 47.6868 97.3549 47.9799C97.0618 48.2729 96.6644 48.4375 96.25 48.4375Z" fill="#48351B"/>
<path d="M90 89.0625C87.2325 89.0624 84.5285 88.2332 82.2369 86.6816C79.9452 85.1301 78.171 82.9275 77.1432 80.358C75.3145 75.7863 74.3749 70.9077 74.375 65.9838V54.6875L79.0625 46.875H100.938L105.625 54.6875V65.9838C105.625 70.9079 104.686 75.7869 102.857 80.3588C101.829 82.9282 100.055 85.1306 97.7629 86.682C95.4713 88.2333 92.7674 89.0625 90 89.0625V89.0625Z" fill="#FDC9A6"/>
<path d="M85.3125 112.5V101.562L90 98.4375L94.6875 101.562V112.5H85.3125Z" fill="#FBFDFF"/>
<path d="M90 106.25C90.8629 106.25 91.5625 105.55 91.5625 104.688C91.5625 103.825 90.8629 103.125 90 103.125C89.1371 103.125 88.4375 103.825 88.4375 104.688C88.4375 105.55 89.1371 106.25 90 106.25Z" fill="#CBCBCB"/>
<path d="M99.375 60.9375H94.6875C94.2731 60.9375 93.8757 60.7729 93.5826 60.4799C93.2896 60.1868 93.125 59.7894 93.125 59.375C93.125 58.9606 93.2896 58.5632 93.5826 58.2701C93.8757 57.9771 94.2731 57.8125 94.6875 57.8125H99.375C99.7894 57.8125 100.187 57.9771 100.48 58.2701C100.773 58.5632 100.938 58.9606 100.938 59.375C100.938 59.7894 100.773 60.1868 100.48 60.4799C100.187 60.7729 99.7894 60.9375 99.375 60.9375Z" fill="#48351B"/>
<path d="M96.6406 65.9878C97.7193 65.9878 98.5938 65.1133 98.5938 64.0347C98.5938 62.956 97.7193 62.0815 96.6406 62.0815C95.5619 62.0815 94.6875 62.956 94.6875 64.0347C94.6875 65.1133 95.5619 65.9878 96.6406 65.9878Z" fill="#48351B"/>
<path d="M85.3125 60.9375H80.625C80.2106 60.9375 79.8132 60.7729 79.5201 60.4799C79.2271 60.1868 79.0625 59.7894 79.0625 59.375C79.0625 58.9606 79.2271 58.5632 79.5201 58.2701C79.8132 57.9771 80.2106 57.8125 80.625 57.8125H85.3125C85.7269 57.8125 86.1243 57.9771 86.4174 58.2701C86.7104 58.5632 86.875 58.9606 86.875 59.375C86.875 59.7894 86.7104 60.1868 86.4174 60.4799C86.1243 60.7729 85.7269 60.9375 85.3125 60.9375Z" fill="#48351B"/>
<path d="M83.3594 65.9878C84.4381 65.9878 85.3125 65.1133 85.3125 64.0347C85.3125 62.956 84.4381 62.0815 83.3594 62.0815C82.2807 62.0815 81.4062 62.956 81.4062 64.0347C81.4062 65.1133 82.2807 65.9878 83.3594 65.9878Z" fill="#48351B"/>
<path d="M91.5625 73.0193H88.4375C88.0231 73.0193 87.6257 72.8547 87.3326 72.5617C87.0396 72.2687 86.875 71.8712 86.875 71.4568V67.1875C86.875 66.7731 87.0396 66.3757 87.3326 66.0826C87.6257 65.7896 88.0231 65.625 88.4375 65.625C88.8519 65.625 89.2493 65.7896 89.5424 66.0826C89.8354 66.3757 90 66.7731 90 67.1875V69.8943H91.5625C91.9769 69.8943 92.3743 70.059 92.6674 70.352C92.9604 70.645 93.125 71.0424 93.125 71.4568C93.125 71.8712 92.9604 72.2687 92.6674 72.5617C92.3743 72.8547 91.9769 73.0193 91.5625 73.0193Z" fill="#F6BB92"/>
<path d="M74.375 58.9565H72.2156C71.1308 58.9565 70.0904 59.3874 69.3233 60.1545C68.5562 60.9215 68.1252 61.9618 68.125 63.0466V65.8026C68.125 66.4377 68.2729 67.0641 68.5568 67.6321C68.8966 68.3116 69.4189 68.883 70.0651 69.2824C70.7113 69.6817 71.456 69.8933 72.2156 69.8933H74.5703L74.375 58.9565Z" fill="#FDC9A6"/>
<path d="M105.625 58.9565H107.784C108.869 58.9565 109.91 59.3874 110.677 60.1545C111.444 60.9215 111.875 61.9618 111.875 63.0466V65.8026C111.875 66.4377 111.727 67.0641 111.443 67.6321C111.103 68.3116 110.581 68.883 109.935 69.2824C109.289 69.6817 108.544 69.8933 107.784 69.8933H105.43L105.625 58.9565Z" fill="#FDC9A6"/>
<path d="M54.0625 120.312V113.644C54.0625 113.23 54.2271 112.832 54.5201 112.539C54.8132 112.246 55.2106 112.082 55.625 112.082C56.0394 112.082 56.4368 112.246 56.7299 112.539C57.0229 112.832 57.1875 113.23 57.1875 113.644V120.312H54.0625Z" fill="#CBCBCB"/>
<path d="M122.812 120.312V113.644C122.812 113.23 122.977 112.832 123.27 112.539C123.563 112.246 123.961 112.082 124.375 112.082C124.789 112.082 125.187 112.246 125.48 112.539C125.773 112.832 125.938 113.23 125.938 113.644V120.312H122.812Z" fill="#CBCBCB"/>
<path d="M68.125 98.019V112.5H61.875V101.144L68.125 98.019Z" fill="#48351B"/>
<path d="M111.875 98.019V112.5H118.125V101.144L111.875 98.019Z" fill="#48351B"/>
<path d="M97.8125 73.4375L90 70.3125L83.75 73.4375L74.375 68.75V75.3588C74.375 78.4816 75.3107 81.5327 77.0615 84.1186C78.8122 86.7045 81.2976 88.7064 84.1971 89.8662C87.9222 91.3562 92.0778 91.3562 95.8029 89.8662C98.7024 88.7064 101.188 86.7045 102.939 84.1186C104.689 81.5327 105.625 78.4816 105.625 75.3588V68.75L97.8125 73.4375Z" fill="#5F4623"/>
<path d="M85.3125 84.375V90.2637C84.9375 90.1465 84.5645 90.0137 84.1973 89.8672C83.5048 89.5903 82.8331 89.264 82.1875 88.8906V84.375C82.1875 83.9606 82.3521 83.5632 82.6451 83.2701C82.9382 82.9771 83.3356 82.8125 83.75 82.8125C84.1644 82.8125 84.5618 82.9771 84.8549 83.2701C85.1479 83.5632 85.3125 83.9606 85.3125 84.375Z" fill="#5F4623"/>
<path d="M91.5625 85.9375V90.9043C90.5236 91.0111 89.4764 91.0111 88.4375 90.9043V85.9375C88.4375 85.5231 88.6021 85.1257 88.8951 84.8326C89.1882 84.5396 89.5856 84.375 90 84.375C90.4144 84.375 90.8118 84.5396 91.1049 84.8326C91.3979 85.1257 91.5625 85.5231 91.5625 85.9375Z" fill="#5F4623"/>
<path d="M97.8125 84.375V88.8906C97.1669 89.264 96.4952 89.5903 95.8027 89.8672C95.4355 90.0137 95.0625 90.1465 94.6875 90.2637V84.375C94.6875 83.9606 94.8521 83.5632 95.1451 83.2701C95.4382 82.9771 95.8356 82.8125 96.25 82.8125C96.6644 82.8125 97.0618 82.9771 97.3549 83.2701C97.6479 83.5632 97.8125 83.9606 97.8125 84.375Z" fill="#5F4623"/>
<path d="M118.125 112.5L119.688 120.312H60.3125L61.875 112.5H118.125Z" fill="#8F6934"/>
<path d="M85.3125 84.375V90.2637C84.9375 90.1465 84.5645 90.0137 84.1973 89.8672C83.5048 89.5903 82.8331 89.264 82.1875 88.8906V84.375C82.1875 83.9606 82.3521 83.5632 82.6451 83.2701C82.9382 82.9771 83.3356 82.8125 83.75 82.8125C84.1644 82.8125 84.5618 82.9771 84.8549 83.2701C85.1479 83.5632 85.3125 83.9606 85.3125 84.375Z" fill="#48351B"/>
<path d="M91.5625 85.9375V90.9043C90.5236 91.0111 89.4764 91.0111 88.4375 90.9043V85.9375C88.4375 85.5231 88.6021 85.1257 88.8951 84.8326C89.1882 84.5396 89.5856 84.375 90 84.375C90.4144 84.375 90.8118 84.5396 91.1049 84.8326C91.3979 85.1257 91.5625 85.5231 91.5625 85.9375Z" fill="#48351B"/>
<path d="M97.8125 84.375V88.8906C97.1669 89.264 96.4952 89.5903 95.8027 89.8672C95.4355 90.0137 95.0625 90.1465 94.6875 90.2637V84.375C94.6875 83.9606 94.8521 83.5632 95.1451 83.2701C95.4382 82.9771 95.8356 82.8125 96.25 82.8125C96.6644 82.8125 97.0618 82.9771 97.3549 83.2701C97.6479 83.5632 97.8125 83.9606 97.8125 84.375Z" fill="#48351B"/>
<path d="M93.125 79.6875H86.875C86.4606 79.6875 86.0632 79.5229 85.7701 79.2299C85.4771 78.9368 85.3125 78.5394 85.3125 78.125C85.3125 77.7106 85.4771 77.3132 85.7701 77.0201C86.0632 76.7271 86.4606 76.5625 86.875 76.5625H93.125C93.5394 76.5625 93.9368 76.7271 94.2299 77.0201C94.5229 77.3132 94.6875 77.7106 94.6875 78.125C94.6875 78.5394 94.5229 78.9368 94.2299 79.2299C93.9368 79.5229 93.5394 79.6875 93.125 79.6875Z" fill="#F6BB92"/>
<path d="M80.625 92.1875L90 98.4375L79.0625 106.25L75.833 94.9467L80.625 92.1875Z" fill="#CBCBCB"/>
<path d="M99.375 92.1875L90 98.4375L100.937 106.25L104.167 94.9467L99.375 92.1875Z" fill="#CBCBCB"/>
<rect x="71" y="42" width="38" height="48" rx="4" stroke="#00EA41" stroke-width="2"/>
<rect x="23.5" y="120.5" width="10" height="10" rx="2.5" stroke="#00EA41"/>
<rect x="1" y="1" width="248" height="148" rx="9" stroke="#6520F9" stroke-width="2"/>
<defs>
<clipPath id="clip0">
</clipPath>
</defs>
</svg>
